  0
SECTION
  2
HEADER
  9
$ACADVER
  1
AC1009
  9
$FILLMODE
 70
0
  9
$EXTMIN
 10
-0.1270
 20
-4.5000
 30
0.0000
  9
$EXTMAX
 10
305.0000
 20
304.5220
 30
0.0000
  0
ENDSEC
  0
SECTION
  2
TABLES
  0
TABLE
  2
LTYPE
 70
1
  0
LTYPE
  2
CONTINUOUS
 70
64
  3
Solid line
 72
65
 73
0
 40
0
  0
ENDTAB
  0
TABLE
  2
LAYER
 70
255
  0
LAYER
  2
20
 70
64
 62
7
  6
CONTINUOUS
  0
LAYER
  2
21
 70
64
 62
253
  6
CONTINUOUS
  0
ENDTAB
  0
ENDSEC
  0
SECTION
  2
BLOCKS
  0
BLOCK
  8
0
  2
RECT
 70
64
 10
0.0000
 20
0.0000
 30
0.0000
  3
RECT
  0
SOLID
  8
0
 10
-0.5000
 20
-0.5000
 30
0.0000
 11
0.5000
 21
-0.5000
 31
0.0000
 12
-0.5000
 22
0.5000
 32
0.0000
 13
0.5000
 23
0.5000
 33
0.0000
  0
ENDBLK
  8
0
  0
BLOCK
  8
0
  2
PIE
 70
64
 10
0.0000
 20
0.0000
 30
0.0000
  3
PIE
  0
CIRCLE
  8
0
 10
0.0000
 20
0.0000
 30
0.0000
 40
0.5000
  0
ENDBLK
  8
0
  0
BLOCK
  8
0
  2
OCTAGONP
 70
64
 10
0.0000
 20
0.0000
 30
0.0000
  3
OCTAGONP
  0
POLYLINE
  8
0
 66
1
 10
0.0000
 20
0.0000
 30
0.0000
 40
0.0000
 41
0.0000
 70
1
  0
VERTEX
  8
0
 10
-0.5000
 20
-0.2071
 30
0.0000
  0
VERTEX
  8
0
 10
-0.5000
 20
0.2071
 30
0.0000
  0
VERTEX
  8
0
 10
-0.2071
 20
0.5000
 30
0.0000
  0
VERTEX
  8
0
 10
0.2071
 20
0.5000
 30
0.0000
  0
VERTEX
  8
0
 10
0.5000
 20
0.2071
 30
0.0000
  0
VERTEX
  8
0
 10
0.5000
 20
-0.2071
 30
0.0000
  0
VERTEX
  8
0
 10
0.2071
 20
-0.5000
 30
0.0000
  0
VERTEX
  8
0
 10
-0.2071
 20
-0.5000
 30
0.0000
  0
SEQEND
  8
0
  0
ENDBLK
  8
0
  0
BLOCK
  8
0
  2
SQUAREP
 70
64
 10
0.0000
 20
0.0000
 30
0.0000
  3
SQUAREP
  0
SOLID
  8
0
 10
-0.5000
 20
-0.5000
 30
0.0000
 11
0.5000
 21
-0.5000
 31
0.0000
 12
-0.5000
 22
0.5000
 32
0.0000
 13
0.5000
 23
0.5000
 33
0.0000
  0
ENDBLK
  8
0
  0
BLOCK
  8
0
  2
ROUNDP
 70
64
 10
0.0000
 20
0.0000
 30
0.0000
  3
ROUNDP
  0
CIRCLE
  8
0
 10
0.0000
 20
0.0000
 30
0.0000
 40
0.5000
  0
ENDBLK
  8
0
  0
BLOCK
  8
0
  2
ANNULUSP
 70
64
 10
0.0000
 20
0.0000
 30
0.0000
  3
ANNULUSP
  0
CIRCLE
  8
0
 10
0.0000
 20
0.0000
 30
0.0000
 40
0.5000
  0
ENDBLK
  8
0
  0
BLOCK
  8
0
  2
THERMALP
 70
64
 10
0.0000
 20
0.0000
 30
0.0000
  3
THERMALP
  0
LINE
  8
0
 10
-0.2379
 20
0.4500
 30
0.0000
 11
0.2379
 21
0.4500
 31
0.0000
  0
LINE
  8
0
 10
0.4500
 20
0.2379
 30
0.0000
 11
0.4500
 21
-0.2379
 31
0.0000
  0
LINE
  8
0
 10
0.2379
 20
-0.4500
 30
0.0000
 11
-0.2379
 21
-0.4500
 31
0.0000
  0
LINE
  8
0
 10
-0.4500
 20
-0.2379
 30
0.0000
 11
-0.4500
 21
0.2379
 31
0.0000
  0
ENDBLK
  8
0
  0
BLOCK
  8
0
  2
OCTAGONV
 70
64
 10
0.0000
 20
0.0000
 30
0.0000
  3
OCTAGONV
  0
POLYLINE
  8
0
 66
1
 10
0.0000
 20
0.0000
 30
0.0000
 40
0.0000
 41
0.0000
 70
1
  0
VERTEX
  8
0
 10
-0.5000
 20
-0.2071
 30
0.0000
  0
VERTEX
  8
0
 10
-0.5000
 20
0.2071
 30
0.0000
  0
VERTEX
  8
0
 10
-0.2071
 20
0.5000
 30
0.0000
  0
VERTEX
  8
0
 10
0.2071
 20
0.5000
 30
0.0000
  0
VERTEX
  8
0
 10
0.5000
 20
0.2071
 30
0.0000
  0
VERTEX
  8
0
 10
0.5000
 20
-0.2071
 30
0.0000
  0
VERTEX
  8
0
 10
0.2071
 20
-0.5000
 30
0.0000
  0
VERTEX
  8
0
 10
-0.2071
 20
-0.5000
 30
0.0000
  0
SEQEND
  8
0
  0
ENDBLK
  8
0
  0
BLOCK
  8
0
  2
SQUAREV
 70
64
 10
0.0000
 20
0.0000
 30
0.0000
  3
SQUAREV
  0
SOLID
  8
0
 10
-0.5000
 20
-0.5000
 30
0.0000
 11
0.5000
 21
-0.5000
 31
0.0000
 12
-0.5000
 22
0.5000
 32
0.0000
 13
0.5000
 23
0.5000
 33
0.0000
  0
ENDBLK
  8
0
  0
BLOCK
  8
0
  2
ROUNDV
 70
64
 10
0.0000
 20
0.0000
 30
0.0000
  3
ROUNDV
  0
CIRCLE
  8
0
 10
0.0000
 20
0.0000
 30
0.0000
 40
0.5000
  0
ENDBLK
  8
0
  0
BLOCK
  8
0
  2
ANNULUSV
 70
64
 10
0.0000
 20
0.0000
 30
0.0000
  3
ANNULUSV
  0
CIRCLE
  8
0
 10
0.0000
 20
0.0000
 30
0.0000
 40
0.5000
  0
ENDBLK
  8
0
  0
BLOCK
  8
0
  2
THERMALV
 70
64
 10
0.0000
 20
0.0000
 30
0.0000
  3
THERMALV
  0
LINE
  8
0
 10
-0.2379
 20
0.4500
 30
0.0000
 11
0.2379
 21
0.4500
 31
0.0000
  0
LINE
  8
0
 10
0.4500
 20
0.2379
 30
0.0000
 11
0.4500
 21
-0.2379
 31
0.0000
  0
LINE
  8
0
 10
0.2379
 20
-0.4500
 30
0.0000
 11
-0.2379
 21
-0.4500
 31
0.0000
  0
LINE
  8
0
 10
-0.4500
 20
-0.2379
 30
0.0000
 11
-0.4500
 21
0.2379
 31
0.0000
  0
ENDBLK
  8
0
  0
BLOCK
  8
0
  2
LONGP100
 70
64
 10
0.0000
 20
0.0000
 30
0.0000
  3
LONGP100
  0
POLYLINE
  8
0
 66
1
 10
0.0000
 20
0.0000
 30
0.0000
 40
0.0000
 41
0.0000
 70
1
  0
VERTEX
  8
0
 10
-0.5000
 20
-0.5000
 30
0.0000
  0
VERTEX
  8
0
 10
0.5000
 20
-0.5000
 30
0.0000
 42
1.0000
  0
VERTEX
  8
0
 10
0.5000
 20
0.5000
 30
0.0000
  0
VERTEX
  8
0
 10
-0.5000
 20
0.5000
 30
0.0000
 42
1.0000
  0
SEQEND
  8
0
  0
ENDBLK
  8
0
  0
ENDSEC
  0
SECTION
  2
ENTITIES
  0
LINE
  8
20
 10
300.0000
 20
0.0000
 30
0.0000
 11
300.0000
 21
300.0000
 31
0.0000
  0
LINE
  8
20
 10
300.0000
 20
300.0000
 30
0.0000
 11
0.0000
 21
300.0000
 31
0.0000
  0
LINE
  8
20
 10
0.0000
 20
300.0000
 30
0.0000
 11
0.0000
 21
0.0000
 31
0.0000
  0
LINE
  8
20
 10
0.0000
 20
0.0000
 30
0.0000
 11
300.0000
 21
0.0000
 31
0.0000
  0
CIRCLE
  8
20
 10
296.0000
 20
4.0000
 30
0.0000
 40
1.5000
  0
CIRCLE
  8
20
 10
60.0000
 20
150.0000
 30
0.0000
 40
1.5000
  0
CIRCLE
  8
20
 10
240.0000
 20
150.0000
 30
0.0000
 40
1.5000
  0
CIRCLE
  8
20
 10
296.0000
 20
296.0000
 30
0.0000
 40
1.5000
  0
CIRCLE
  8
20
 10
4.0000
 20
296.0000
 30
0.0000
 40
1.5000
  0
CIRCLE
  8
20
 10
4.0000
 20
4.0000
 30
0.0000
 40
1.5000
  0
CIRCLE
  8
20
 10
258.7500
 20
185.0000
 30
0.0000
 40
1.5000
  0
CIRCLE
  8
20
 10
150.0000
 20
150.0000
 30
0.0000
 40
1.5000
  0
CIRCLE
  8
20
 10
41.2500
 20
115.0000
 30
0.0000
 40
1.5000
  0
CIRCLE
  8
20
 10
150.0000
 20
115.0000
 30
0.0000
 40
1.5000
  0
CIRCLE
  8
20
 10
258.7500
 20
115.0000
 30
0.0000
 40
1.5000
  0
CIRCLE
  8
20
 10
41.2500
 20
185.0000
 30
0.0000
 40
1.5000
  0
CIRCLE
  8
20
 10
150.0000
 20
185.0000
 30
0.0000
 40
1.5000
  0
ARC
  8
20
 10
288.0000
 20
8.5000
 30
0.0000
 40
0.5000
 50
90.0000
 51
270.0000
  0
ARC
  8
20
 10
289.5000
 20
8.5000
 30
0.0000
 40
0.5000
 50
270.0000
 51
90.0000
  0
LINE
  8
20
 10
288.0000
 20
8.0000
 30
0.0000
 11
289.5000
 21
8.0000
 31
0.0000
  0
LINE
  8
20
 10
288.0000
 20
9.0000
 30
0.0000
 11
289.5000
 21
9.0000
 31
0.0000
  0
ARC
  8
20
 10
285.5000
 20
12.0000
 30
0.0000
 40
0.5000
 50
180.0000
 51
0.0000
  0
ARC
  8
20
 10
285.5000
 20
14.0000
 30
0.0000
 40
0.5000
 50
0.0000
 51
180.0000
  0
LINE
  8
20
 10
285.0000
 20
14.0000
 30
0.0000
 11
285.0000
 21
12.0000
 31
0.0000
  0
LINE
  8
20
 10
286.0000
 20
14.0000
 30
0.0000
 11
286.0000
 21
12.0000
 31
0.0000
  0
ARC
  8
20
 10
292.0000
 20
14.0000
 30
0.0000
 40
0.5000
 50
0.0000
 51
180.0000
  0
ARC
  8
20
 10
292.0000
 20
12.0000
 30
0.0000
 40
0.5000
 50
180.0000
 51
0.0000
  0
LINE
  8
20
 10
292.5000
 20
14.0000
 30
0.0000
 11
292.5000
 21
12.0000
 31
0.0000
  0
LINE
  8
20
 10
291.5000
 20
14.0000
 30
0.0000
 11
291.5000
 21
12.0000
 31
0.0000
  0
LINE
  8
21
 10
162.1477
 20
289.4944
 30
0.0000
 11
162.6703
 21
294.4670
 31
0.0000
  0
LINE
  8
21
 10
162.6703
 20
294.4670
 30
0.0000
 11
166.6484
 21
294.0489
 31
0.0000
  0
LINE
  8
21
 10
166.6484
 20
294.0489
 30
0.0000
 11
167.6429
 21
293.9443
 31
0.0000
  0
LINE
  8
21
 10
167.6429
 20
293.9443
 30
0.0000
 11
167.5384
 21
292.9498
 31
0.0000
  0
LINE
  8
21
 10
167.5384
 20
292.9498
 30
0.0000
 11
167.1203
 21
288.9717
 31
0.0000
  0
LINE
  8
21
 10
167.1203
 20
288.9717
 30
0.0000
 11
162.1477
 21
289.4944
 31
0.0000
  0
LINE
  8
21
 10
167.5384
 20
292.9498
 30
0.0000
 11
166.6484
 21
294.0489
 31
0.0000
  0
CIRCLE
  8
21
 10
167.8753
 20
294.3563
 30
0.0000
 40
0.1414
  0
CIRCLE
  8
21
 10
164.8953
 20
291.7194
 30
0.0000
 40
2.1000
  0
LINE
  8
21
 10
176.6623
 20
287.4604
 30
0.0000
 11
177.7018
 21
292.3512
 31
0.0000
  0
LINE
  8
21
 10
177.7018
 20
292.3512
 30
0.0000
 11
181.6144
 21
291.5195
 31
0.0000
  0
LINE
  8
21
 10
181.6144
 20
291.5195
 30
0.0000
 11
182.5926
 21
291.3116
 31
0.0000
  0
LINE
  8
21
 10
182.5926
 20
291.3116
 30
0.0000
 11
182.3847
 21
290.3335
 31
0.0000
  0
LINE
  8
21
 10
182.3847
 20
290.3335
 30
0.0000
 11
181.5530
 21
286.4209
 31
0.0000
  0
LINE
  8
21
 10
181.5530
 20
286.4209
 30
0.0000
 11
176.6623
 21
287.4604
 31
0.0000
  0
LINE
  8
21
 10
182.3847
 20
290.3335
 30
0.0000
 11
181.6144
 21
291.5195
 31
0.0000
  0
CIRCLE
  8
21
 10
182.8667
 20
291.6970
 30
0.0000
 40
0.1414
  0
CIRCLE
  8
21
 10
179.6274
 20
289.3860
 30
0.0000
 40
2.1000
  0
LINE
  8
21
 10
190.8847
 20
283.9205
 30
0.0000
 11
192.4298
 21
288.6757
 31
0.0000
  0
LINE
  8
21
 10
192.4298
 20
288.6757
 30
0.0000
 11
196.2340
 21
287.4397
 31
0.0000
  0
LINE
  8
21
 10
196.2340
 20
287.4397
 30
0.0000
 11
197.1851
 21
287.1307
 31
0.0000
  0
LINE
  8
21
 10
197.1851
 20
287.1307
 30
0.0000
 11
196.8761
 21
286.1796
 31
0.0000
  0
LINE
  8
21
 10
196.8761
 20
286.1796
 30
0.0000
 11
195.6400
 21
282.3754
 31
0.0000
  0
LINE
  8
21
 10
195.6400
 20
282.3754
 30
0.0000
 11
190.8847
 21
283.9205
 31
0.0000
  0
LINE
  8
21
 10
196.8761
 20
286.1796
 30
0.0000
 11
196.2340
 21
287.4397
 31
0.0000
  0
CIRCLE
  8
21
 10
197.4980
 20
287.4853
 30
0.0000
 40
0.1414
  0
CIRCLE
  8
21
 10
194.0349
 20
285.5256
 30
0.0000
 40
2.1000
  0
LINE
  8
21
 10
204.6593
 20
278.9132
 30
0.0000
 11
206.6929
 21
283.4809
 31
0.0000
  0
LINE
  8
21
 10
206.6929
 20
283.4809
 30
0.0000
 11
210.3471
 21
281.8540
 31
0.0000
  0
LINE
  8
21
 10
210.3471
 20
281.8540
 30
0.0000
 11
211.2607
 21
281.4472
 31
0.0000
  0
LINE
  8
21
 10
211.2607
 20
281.4472
 30
0.0000
 11
210.8539
 21
280.5337
 31
0.0000
  0
LINE
  8
21
 10
210.8539
 20
280.5337
 30
0.0000
 11
209.2270
 21
276.8795
 31
0.0000
  0
LINE
  8
21
 10
209.2270
 20
276.8795
 30
0.0000
 11
204.6593
 21
278.9132
 31
0.0000
  0
LINE
  8
21
 10
210.8539
 20
280.5337
 30
0.0000
 11
210.3471
 21
281.8540
 31
0.0000
  0
CIRCLE
  8
21
 10
211.6089
 20
281.7673
 30
0.0000
 40
0.1414
  0
CIRCLE
  8
21
 10
207.9600
 20
280.1802
 30
0.0000
 40
2.1000
  0
LINE
  8
21
 10
217.8349
 20
272.4936
 30
0.0000
 11
220.3349
 21
276.8237
 31
0.0000
  0
LINE
  8
21
 10
220.3349
 20
276.8237
 30
0.0000
 11
223.7990
 21
274.8237
 31
0.0000
  0
LINE
  8
21
 10
223.7990
 20
274.8237
 30
0.0000
 11
224.6651
 21
274.3237
 31
0.0000
  0
LINE
  8
21
 10
224.6651
 20
274.3237
 30
0.0000
 11
224.1651
 21
273.4577
 31
0.0000
  0
LINE
  8
21
 10
224.1651
 20
273.4577
 30
0.0000
 11
222.1651
 21
269.9936
 31
0.0000
  0
LINE
  8
21
 10
222.1651
 20
269.9936
 30
0.0000
 11
217.8349
 21
272.4936
 31
0.0000
  0
LINE
  8
21
 10
224.1651
 20
273.4577
 30
0.0000
 11
223.7990
 21
274.8237
 31
0.0000
  0
CIRCLE
  8
21
 10
225.0449
 20
274.6055
 30
0.0000
 40
0.1414
  0
CIRCLE
  8
21
 10
221.2500
 20
273.4086
 30
0.0000
 40
2.1000
  0
LINE
  8
21
 10
230.2674
 20
264.7318
 30
0.0000
 11
233.2063
 21
268.7769
 31
0.0000
  0
LINE
  8
21
 10
233.2063
 20
268.7769
 30
0.0000
 11
236.4424
 21
266.4258
 31
0.0000
  0
LINE
  8
21
 10
236.4424
 20
266.4258
 30
0.0000
 11
237.2514
 21
265.8380
 31
0.0000
  0
LINE
  8
21
 10
237.2514
 20
265.8380
 30
0.0000
 11
236.6636
 21
265.0290
 31
0.0000
  0
LINE
  8
21
 10
236.6636
 20
265.0290
 30
0.0000
 11
234.3125
 21
261.7929
 31
0.0000
  0
LINE
  8
21
 10
234.3125
 20
261.7929
 30
0.0000
 11
230.2674
 21
264.7318
 31
0.0000
  0
LINE
  8
21
 10
236.6636
 20
265.0290
 30
0.0000
 11
236.4424
 21
266.4258
 31
0.0000
  0
CIRCLE
  8
21
 10
237.6586
 20
266.0786
 30
0.0000
 40
0.1414
  0
CIRCLE
  8
21
 10
233.7594
 20
265.2849
 30
0.0000
 40
2.1000
  0
LINE
  8
21
 10
241.8204
 20
255.7131
 30
0.0000
 11
245.1661
 21
259.4288
 31
0.0000
  0
LINE
  8
21
 10
245.1661
 20
259.4288
 30
0.0000
 11
248.1387
 21
256.7523
 31
0.0000
  0
LINE
  8
21
 10
248.1387
 20
256.7523
 30
0.0000
 11
248.8818
 21
256.0832
 31
0.0000
  0
LINE
  8
21
 10
248.8818
 20
256.0832
 30
0.0000
 11
248.2127
 21
255.3400
 31
0.0000
  0
LINE
  8
21
 10
248.2127
 20
255.3400
 30
0.0000
 11
245.5361
 21
252.3674
 31
0.0000
  0
LINE
  8
21
 10
245.5361
 20
252.3674
 30
0.0000
 11
241.8204
 21
255.7131
 31
0.0000
  0
LINE
  8
21
 10
248.2127
 20
255.3400
 30
0.0000
 11
248.1387
 21
256.7523
 31
0.0000
  0
CIRCLE
  8
21
 10
249.3119
 20
256.2799
 30
0.0000
 40
0.1414
  0
CIRCLE
  8
21
 10
245.3511
 20
255.8981
 30
0.0000
 40
2.1000
  0
LINE
  8
21
 10
252.3674
 20
245.5361
 30
0.0000
 11
256.0832
 21
248.8818
 31
0.0000
  0
LINE
  8
21
 10
256.0832
 20
248.8818
 30
0.0000
 11
258.7597
 21
245.9092
 31
0.0000
  0
LINE
  8
21
 10
258.7597
 20
245.9092
 30
0.0000
 11
259.4288
 21
245.1661
 31
0.0000
  0
LINE
  8
21
 10
259.4288
 20
245.1661
 30
0.0000
 11
258.6857
 21
244.4969
 31
0.0000
  0
LINE
  8
21
 10
258.6857
 20
244.4969
 30
0.0000
 11
255.7131
 21
241.8204
 31
0.0000
  0
LINE
  8
21
 10
255.7131
 20
241.8204
 30
0.0000
 11
252.3674
 21
245.5361
 31
0.0000
  0
LINE
  8
21
 10
258.6857
 20
244.4969
 30
0.0000
 11
258.7597
 21
245.9092
 31
0.0000
  0
CIRCLE
  8
21
 10
259.8771
 20
245.3168
 30
0.0000
 40
0.1414
  0
CIRCLE
  8
21
 10
255.8981
 20
245.3511
 30
0.0000
 40
2.1000
  0
LINE
  8
21
 10
261.7929
 20
234.3125
 30
0.0000
 11
265.8380
 21
237.2514
 31
0.0000
  0
LINE
  8
21
 10
265.8380
 20
237.2514
 30
0.0000
 11
268.1891
 21
234.0153
 31
0.0000
  0
LINE
  8
21
 10
268.1891
 20
234.0153
 30
0.0000
 11
268.7769
 21
233.2063
 31
0.0000
  0
LINE
  8
21
 10
268.7769
 20
233.2063
 30
0.0000
 11
267.9679
 21
232.6185
 31
0.0000
  0
LINE
  8
21
 10
267.9679
 20
232.6185
 30
0.0000
 11
264.7318
 21
230.2674
 31
0.0000
  0
LINE
  8
21
 10
264.7318
 20
230.2674
 30
0.0000
 11
261.7929
 21
234.3125
 31
0.0000
  0
LINE
  8
21
 10
267.9679
 20
232.6185
 30
0.0000
 11
268.1891
 21
234.0153
 31
0.0000
  0
CIRCLE
  8
21
 10
269.2385
 20
233.3093
 30
0.0000
 40
0.1414
  0
CIRCLE
  8
21
 10
265.2849
 20
233.7594
 30
0.0000
 40
2.1000
  0
LINE
  8
21
 10
269.9936
 20
222.1651
 30
0.0000
 11
274.3237
 21
224.6651
 31
0.0000
  0
LINE
  8
21
 10
274.3237
 20
224.6651
 30
0.0000
 11
276.3237
 21
221.2010
 31
0.0000
  0
LINE
  8
21
 10
276.3237
 20
221.2010
 30
0.0000
 11
276.8237
 21
220.3349
 31
0.0000
  0
LINE
  8
21
 10
276.8237
 20
220.3349
 30
0.0000
 11
275.9577
 21
219.8349
 31
0.0000
  0
LINE
  8
21
 10
275.9577
 20
219.8349
 30
0.0000
 11
272.4936
 21
217.8349
 31
0.0000
  0
LINE
  8
21
 10
272.4936
 20
217.8349
 30
0.0000
 11
269.9936
 21
222.1651
 31
0.0000
  0
LINE
  8
21
 10
275.9577
 20
219.8349
 30
0.0000
 11
276.3237
 21
221.2010
 31
0.0000
  0
CIRCLE
  8
21
 10
277.2935
 20
220.3891
 30
0.0000
 40
0.1414
  0
CIRCLE
  8
21
 10
273.4086
 20
221.2500
 30
0.0000
 40
2.1000
  0
LINE
  8
21
 10
276.8795
 20
209.2270
 30
0.0000
 11
281.4472
 21
211.2607
 31
0.0000
  0
LINE
  8
21
 10
281.4472
 20
211.2607
 30
0.0000
 11
283.0742
 21
207.6065
 31
0.0000
  0
LINE
  8
21
 10
283.0742
 20
207.6065
 30
0.0000
 11
283.4809
 21
206.6929
 31
0.0000
  0
LINE
  8
21
 10
283.4809
 20
206.6929
 30
0.0000
 11
282.5674
 21
206.2862
 31
0.0000
  0
LINE
  8
21
 10
282.5674
 20
206.2862
 30
0.0000
 11
278.9132
 21
204.6593
 31
0.0000
  0
LINE
  8
21
 10
278.9132
 20
204.6593
 30
0.0000
 11
276.8795
 21
209.2270
 31
0.0000
  0
LINE
  8
21
 10
282.5674
 20
206.2862
 30
0.0000
 11
283.0742
 21
207.6065
 31
0.0000
  0
CIRCLE
  8
21
 10
283.9539
 20
206.6977
 30
0.0000
 40
0.1414
  0
CIRCLE
  8
21
 10
280.1802
 20
207.9600
 30
0.0000
 40
2.1000
  0
LINE
  8
21
 10
282.3754
 20
195.6400
 30
0.0000
 11
287.1307
 21
197.1851
 31
0.0000
  0
LINE
  8
21
 10
287.1307
 20
197.1851
 30
0.0000
 11
288.3667
 21
193.3809
 31
0.0000
  0
LINE
  8
21
 10
288.3667
 20
193.3809
 30
0.0000
 11
288.6757
 21
192.4298
 31
0.0000
  0
LINE
  8
21
 10
288.6757
 20
192.4298
 30
0.0000
 11
287.7247
 21
192.1208
 31
0.0000
  0
LINE
  8
21
 10
287.7247
 20
192.1208
 30
0.0000
 11
283.9205
 21
190.8847
 31
0.0000
  0
LINE
  8
21
 10
283.9205
 20
190.8847
 30
0.0000
 11
282.3754
 21
195.6400
 31
0.0000
  0
LINE
  8
21
 10
287.7247
 20
192.1208
 30
0.0000
 11
288.3667
 21
193.3809
 31
0.0000
  0
CIRCLE
  8
21
 10
289.1466
 20
192.3851
 30
0.0000
 40
0.1414
  0
CIRCLE
  8
21
 10
285.5256
 20
194.0349
 30
0.0000
 40
2.1000
  0
LINE
  8
21
 10
286.4209
 20
181.5530
 30
0.0000
 11
291.3116
 21
182.5926
 31
0.0000
  0
LINE
  8
21
 10
291.3116
 20
182.5926
 30
0.0000
 11
292.1433
 21
178.6800
 31
0.0000
  0
LINE
  8
21
 10
292.1433
 20
178.6800
 30
0.0000
 11
292.3512
 21
177.7018
 31
0.0000
  0
LINE
  8
21
 10
292.3512
 20
177.7018
 30
0.0000
 11
291.3730
 21
177.4939
 31
0.0000
  0
LINE
  8
21
 10
291.3730
 20
177.4939
 30
0.0000
 11
287.4604
 21
176.6623
 31
0.0000
  0
LINE
  8
21
 10
287.4604
 20
176.6623
 30
0.0000
 11
286.4209
 21
181.5530
 31
0.0000
  0
LINE
  8
21
 10
291.3730
 20
177.4939
 30
0.0000
 11
292.1433
 21
178.6800
 31
0.0000
  0
CIRCLE
  8
21
 10
292.8148
 20
177.6082
 30
0.0000
 40
0.1414
  0
CIRCLE
  8
21
 10
289.3860
 20
179.6274
 30
0.0000
 40
2.1000
  0
LINE
  8
21
 10
288.9717
 20
167.1203
 30
0.0000
 11
293.9443
 21
167.6429
 31
0.0000
  0
LINE
  8
21
 10
293.9443
 20
167.6429
 30
0.0000
 11
294.3625
 21
163.6648
 31
0.0000
  0
LINE
  8
21
 10
294.3625
 20
163.6648
 30
0.0000
 11
294.4670
 21
162.6703
 31
0.0000
  0
LINE
  8
21
 10
294.4670
 20
162.6703
 30
0.0000
 11
293.4725
 21
162.5658
 31
0.0000
  0
LINE
  8
21
 10
293.4725
 20
162.5658
 30
0.0000
 11
289.4944
 21
162.1477
 31
0.0000
  0
LINE
  8
21
 10
289.4944
 20
162.1477
 30
0.0000
 11
288.9717
 21
167.1203
 31
0.0000
  0
LINE
  8
21
 10
293.4725
 20
162.5658
 30
0.0000
 11
294.3625
 21
163.6648
 31
0.0000
  0
CIRCLE
  8
21
 10
294.9183
 20
162.5287
 30
0.0000
 40
0.1414
  0
CIRCLE
  8
21
 10
291.7194
 20
164.8953
 30
0.0000
 40
2.1000
  0
LINE
  8
21
 10
290.0000
 20
152.5000
 30
0.0000
 11
295.0000
 21
152.5000
 31
0.0000
  0
LINE
  8
21
 10
295.0000
 20
152.5000
 30
0.0000
 11
295.0000
 21
148.5000
 31
0.0000
  0
LINE
  8
21
 10
295.0000
 20
148.5000
 30
0.0000
 11
295.0000
 21
147.5000
 31
0.0000
  0
LINE
  8
21
 10
295.0000
 20
147.5000
 30
0.0000
 11
294.0000
 21
147.5000
 31
0.0000
  0
LINE
  8
21
 10
294.0000
 20
147.5000
 30
0.0000
 11
290.0000
 21
147.5000
 31
0.0000
  0
LINE
  8
21
 10
290.0000
 20
147.5000
 30
0.0000
 11
290.0000
 21
152.5000
 31
0.0000
  0
LINE
  8
21
 10
294.0000
 20
147.5000
 30
0.0000
 11
295.0000
 21
148.5000
 31
0.0000
  0
CIRCLE
  8
21
 10
295.4340
 20
147.3120
 30
0.0000
 40
0.1414
  0
CIRCLE
  8
21
 10
292.5000
 20
150.0000
 30
0.0000
 40
2.1000
  0
LINE
  8
21
 10
289.4944
 20
137.8523
 30
0.0000
 11
294.4670
 21
137.3297
 31
0.0000
  0
LINE
  8
21
 10
294.4670
 20
137.3297
 30
0.0000
 11
294.0489
 21
133.3516
 31
0.0000
  0
LINE
  8
21
 10
294.0489
 20
133.3516
 30
0.0000
 11
293.9443
 21
132.3571
 31
0.0000
  0
LINE
  8
21
 10
293.9443
 20
132.3571
 30
0.0000
 11
292.9498
 21
132.4616
 31
0.0000
  0
LINE
  8
21
 10
292.9498
 20
132.4616
 30
0.0000
 11
288.9717
 21
132.8797
 31
0.0000
  0
LINE
  8
21
 10
288.9717
 20
132.8797
 30
0.0000
 11
289.4944
 21
137.8523
 31
0.0000
  0
LINE
  8
21
 10
292.9498
 20
132.4616
 30
0.0000
 11
294.0489
 21
133.3516
 31
0.0000
  0
CIRCLE
  8
21
 10
294.3563
 20
132.1247
 30
0.0000
 40
0.1414
  0
CIRCLE
  8
21
 10
291.7194
 20
135.1047
 30
0.0000
 40
2.1000
  0
LINE
  8
21
 10
287.4604
 20
123.3377
 30
0.0000
 11
292.3512
 21
122.2982
 31
0.0000
  0
LINE
  8
21
 10
292.3512
 20
122.2982
 30
0.0000
 11
291.5195
 21
118.3856
 31
0.0000
  0
LINE
  8
21
 10
291.5195
 20
118.3856
 30
0.0000
 11
291.3116
 21
117.4074
 31
0.0000
  0
LINE
  8
21
 10
291.3116
 20
117.4074
 30
0.0000
 11
290.3335
 21
117.6153
 31
0.0000
  0
LINE
  8
21
 10
290.3335
 20
117.6153
 30
0.0000
 11
286.4209
 21
118.4470
 31
0.0000
  0
LINE
  8
21
 10
286.4209
 20
118.4470
 30
0.0000
 11
287.4604
 21
123.3377
 31
0.0000
  0
LINE
  8
21
 10
290.3335
 20
117.6153
 30
0.0000
 11
291.5195
 21
118.3856
 31
0.0000
  0
CIRCLE
  8
21
 10
291.6970
 20
117.1333
 30
0.0000
 40
0.1414
  0
CIRCLE
  8
21
 10
289.3860
 20
120.3726
 30
0.0000
 40
2.1000
  0
LINE
  8
21
 10
283.9205
 20
109.1153
 30
0.0000
 11
288.6757
 21
107.5702
 31
0.0000
  0
LINE
  8
21
 10
288.6757
 20
107.5702
 30
0.0000
 11
287.4397
 21
103.7660
 31
0.0000
  0
LINE
  8
21
 10
287.4397
 20
103.7660
 30
0.0000
 11
287.1307
 21
102.8149
 31
0.0000
  0
LINE
  8
21
 10
287.1307
 20
102.8149
 30
0.0000
 11
286.1796
 21
103.1239
 31
0.0000
  0
LINE
  8
21
 10
286.1796
 20
103.1239
 30
0.0000
 11
282.3754
 21
104.3600
 31
0.0000
  0
LINE
  8
21
 10
282.3754
 20
104.3600
 30
0.0000
 11
283.9205
 21
109.1153
 31
0.0000
  0
LINE
  8
21
 10
286.1796
 20
103.1239
 30
0.0000
 11
287.4397
 21
103.7660
 31
0.0000
  0
CIRCLE
  8
21
 10
287.4853
 20
102.5020
 30
0.0000
 40
0.1414
  0
CIRCLE
  8
21
 10
285.5256
 20
105.9651
 30
0.0000
 40
2.1000
  0
LINE
  8
21
 10
278.9132
 20
95.3407
 30
0.0000
 11
283.4809
 21
93.3071
 31
0.0000
  0
LINE
  8
21
 10
283.4809
 20
93.3071
 30
0.0000
 11
281.8540
 21
89.6529
 31
0.0000
  0
LINE
  8
21
 10
281.8540
 20
89.6529
 30
0.0000
 11
281.4472
 21
88.7393
 31
0.0000
  0
LINE
  8
21
 10
281.4472
 20
88.7393
 30
0.0000
 11
280.5337
 21
89.1461
 31
0.0000
  0
LINE
  8
21
 10
280.5337
 20
89.1461
 30
0.0000
 11
276.8795
 21
90.7730
 31
0.0000
  0
LINE
  8
21
 10
276.8795
 20
90.7730
 30
0.0000
 11
278.9132
 21
95.3407
 31
0.0000
  0
LINE
  8
21
 10
280.5337
 20
89.1461
 30
0.0000
 11
281.8540
 21
89.6529
 31
0.0000
  0
CIRCLE
  8
21
 10
281.7673
 20
88.3911
 30
0.0000
 40
0.1414
  0
CIRCLE
  8
21
 10
280.1802
 20
92.0400
 30
0.0000
 40
2.1000
  0
LINE
  8
21
 10
272.4936
 20
82.1651
 30
0.0000
 11
276.8237
 21
79.6651
 31
0.0000
  0
LINE
  8
21
 10
276.8237
 20
79.6651
 30
0.0000
 11
274.8237
 21
76.2010
 31
0.0000
  0
LINE
  8
21
 10
274.8237
 20
76.2010
 30
0.0000
 11
274.3237
 21
75.3349
 31
0.0000
  0
LINE
  8
21
 10
274.3237
 20
75.3349
 30
0.0000
 11
273.4577
 21
75.8349
 31
0.0000
  0
LINE
  8
21
 10
273.4577
 20
75.8349
 30
0.0000
 11
269.9936
 21
77.8349
 31
0.0000
  0
LINE
  8
21
 10
269.9936
 20
77.8349
 30
0.0000
 11
272.4936
 21
82.1651
 31
0.0000
  0
LINE
  8
21
 10
273.4577
 20
75.8349
 30
0.0000
 11
274.8237
 21
76.2010
 31
0.0000
  0
CIRCLE
  8
21
 10
274.6055
 20
74.9551
 30
0.0000
 40
0.1414
  0
CIRCLE
  8
21
 10
273.4086
 20
78.7500
 30
0.0000
 40
2.1000
  0
LINE
  8
21
 10
264.7318
 20
69.7326
 30
0.0000
 11
268.7769
 21
66.7937
 31
0.0000
  0
LINE
  8
21
 10
268.7769
 20
66.7937
 30
0.0000
 11
266.4258
 21
63.5576
 31
0.0000
  0
LINE
  8
21
 10
266.4258
 20
63.5576
 30
0.0000
 11
265.8380
 21
62.7486
 31
0.0000
  0
LINE
  8
21
 10
265.8380
 20
62.7486
 30
0.0000
 11
265.0290
 21
63.3364
 31
0.0000
  0
LINE
  8
21
 10
265.0290
 20
63.3364
 30
0.0000
 11
261.7929
 21
65.6875
 31
0.0000
  0
LINE
  8
21
 10
261.7929
 20
65.6875
 30
0.0000
 11
264.7318
 21
69.7326
 31
0.0000
  0
LINE
  8
21
 10
265.0290
 20
63.3364
 30
0.0000
 11
266.4258
 21
63.5576
 31
0.0000
  0
CIRCLE
  8
21
 10
266.0786
 20
62.3414
 30
0.0000
 40
0.1414
  0
CIRCLE
  8
21
 10
265.2849
 20
66.2406
 30
0.0000
 40
2.1000
  0
LINE
  8
21
 10
255.7131
 20
58.1796
 30
0.0000
 11
259.4288
 21
54.8339
 31
0.0000
  0
LINE
  8
21
 10
259.4288
 20
54.8339
 30
0.0000
 11
256.7523
 21
51.8613
 31
0.0000
  0
LINE
  8
21
 10
256.7523
 20
51.8613
 30
0.0000
 11
256.0832
 21
51.1182
 31
0.0000
  0
LINE
  8
21
 10
256.0832
 20
51.1182
 30
0.0000
 11
255.3400
 21
51.7873
 31
0.0000
  0
LINE
  8
21
 10
255.3400
 20
51.7873
 30
0.0000
 11
252.3674
 21
54.4639
 31
0.0000
  0
LINE
  8
21
 10
252.3674
 20
54.4639
 30
0.0000
 11
255.7131
 21
58.1796
 31
0.0000
  0
LINE
  8
21
 10
255.3400
 20
51.7873
 30
0.0000
 11
256.7523
 21
51.8613
 31
0.0000
  0
CIRCLE
  8
21
 10
256.2799
 20
50.6881
 30
0.0000
 40
0.1414
  0
CIRCLE
  8
21
 10
255.8981
 20
54.6489
 30
0.0000
 40
2.1000
  0
LINE
  8
21
 10
245.5361
 20
47.6326
 30
0.0000
 11
248.8818
 21
43.9168
 31
0.0000
  0
LINE
  8
21
 10
248.8818
 20
43.9168
 30
0.0000
 11
245.9092
 21
41.2403
 31
0.0000
  0
LINE
  8
21
 10
245.9092
 20
41.2403
 30
0.0000
 11
245.1661
 21
40.5712
 31
0.0000
  0
LINE
  8
21
 10
245.1661
 20
40.5712
 30
0.0000
 11
244.4969
 21
41.3143
 31
0.0000
  0
LINE
  8
21
 10
244.4969
 20
41.3143
 30
0.0000
 11
241.8204
 21
44.2869
 31
0.0000
  0
LINE
  8
21
 10
241.8204
 20
44.2869
 30
0.0000
 11
245.5361
 21
47.6326
 31
0.0000
  0
LINE
  8
21
 10
244.4969
 20
41.3143
 30
0.0000
 11
245.9092
 21
41.2403
 31
0.0000
  0
CIRCLE
  8
21
 10
245.3168
 20
40.1228
 30
0.0000
 40
0.1414
  0
CIRCLE
  8
21
 10
245.3511
 20
44.1019
 30
0.0000
 40
2.1000
  0
LINE
  8
21
 10
234.3125
 20
38.2071
 30
0.0000
 11
237.2514
 21
34.1620
 31
0.0000
  0
LINE
  8
21
 10
237.2514
 20
34.1620
 30
0.0000
 11
234.0153
 21
31.8109
 31
0.0000
  0
LINE
  8
21
 10
234.0153
 20
31.8109
 30
0.0000
 11
233.2063
 21
31.2231
 31
0.0000
  0
LINE
  8
21
 10
233.2063
 20
31.2231
 30
0.0000
 11
232.6185
 21
32.0321
 31
0.0000
  0
LINE
  8
21
 10
232.6185
 20
32.0321
 30
0.0000
 11
230.2674
 21
35.2682
 31
0.0000
  0
LINE
  8
21
 10
230.2674
 20
35.2682
 30
0.0000
 11
234.3125
 21
38.2071
 31
0.0000
  0
LINE
  8
21
 10
232.6185
 20
32.0321
 30
0.0000
 11
234.0153
 21
31.8109
 31
0.0000
  0
CIRCLE
  8
21
 10
233.3093
 20
30.7615
 30
0.0000
 40
0.1414
  0
CIRCLE
  8
21
 10
233.7594
 20
34.7151
 30
0.0000
 40
2.1000
  0
LINE
  8
21
 10
222.1651
 20
30.0064
 30
0.0000
 11
224.6651
 21
25.6763
 31
0.0000
  0
LINE
  8
21
 10
224.6651
 20
25.6763
 30
0.0000
 11
221.2010
 21
23.6763
 31
0.0000
  0
LINE
  8
21
 10
221.2010
 20
23.6763
 30
0.0000
 11
220.3349
 21
23.1763
 31
0.0000
  0
LINE
  8
21
 10
220.3349
 20
23.1763
 30
0.0000
 11
219.8349
 21
24.0423
 31
0.0000
  0
LINE
  8
21
 10
219.8349
 20
24.0423
 30
0.0000
 11
217.8349
 21
27.5064
 31
0.0000
  0
LINE
  8
21
 10
217.8349
 20
27.5064
 30
0.0000
 11
222.1651
 21
30.0064
 31
0.0000
  0
LINE
  8
21
 10
219.8349
 20
24.0423
 30
0.0000
 11
221.2010
 21
23.6763
 31
0.0000
  0
CIRCLE
  8
21
 10
220.3891
 20
22.7065
 30
0.0000
 40
0.1414
  0
CIRCLE
  8
21
 10
221.2500
 20
26.5914
 30
0.0000
 40
2.1000
  0
LINE
  8
21
 10
209.2270
 20
23.1205
 30
0.0000
 11
211.2607
 21
18.5527
 31
0.0000
  0
LINE
  8
21
 10
211.2607
 20
18.5527
 30
0.0000
 11
207.6065
 21
16.9258
 31
0.0000
  0
LINE
  8
21
 10
207.6065
 20
16.9258
 30
0.0000
 11
206.6929
 21
16.5191
 31
0.0000
  0
LINE
  8
21
 10
206.6929
 20
16.5191
 30
0.0000
 11
206.2862
 21
17.4326
 31
0.0000
  0
LINE
  8
21
 10
206.2862
 20
17.4326
 30
0.0000
 11
204.6593
 21
21.0868
 31
0.0000
  0
LINE
  8
21
 10
204.6593
 20
21.0868
 30
0.0000
 11
209.2270
 21
23.1205
 31
0.0000
  0
LINE
  8
21
 10
206.2862
 20
17.4326
 30
0.0000
 11
207.6065
 21
16.9258
 31
0.0000
  0
CIRCLE
  8
21
 10
206.6977
 20
16.0461
 30
0.0000
 40
0.1414
  0
CIRCLE
  8
21
 10
207.9600
 20
19.8198
 30
0.0000
 40
2.1000
  0
LINE
  8
21
 10
195.6400
 20
17.6246
 30
0.0000
 11
197.1851
 21
12.8693
 31
0.0000
  0
LINE
  8
21
 10
197.1851
 20
12.8693
 30
0.0000
 11
193.3809
 21
11.6333
 31
0.0000
  0
LINE
  8
21
 10
193.3809
 20
11.6333
 30
0.0000
 11
192.4298
 21
11.3243
 31
0.0000
  0
LINE
  8
21
 10
192.4298
 20
11.3243
 30
0.0000
 11
192.1208
 21
12.2753
 31
0.0000
  0
LINE
  8
21
 10
192.1208
 20
12.2753
 30
0.0000
 11
190.8847
 21
16.0795
 31
0.0000
  0
LINE
  8
21
 10
190.8847
 20
16.0795
 30
0.0000
 11
195.6400
 21
17.6246
 31
0.0000
  0
LINE
  8
21
 10
192.1208
 20
12.2753
 30
0.0000
 11
193.3809
 21
11.6333
 31
0.0000
  0
CIRCLE
  8
21
 10
192.3851
 20
10.8534
 30
0.0000
 40
0.1414
  0
CIRCLE
  8
21
 10
194.0349
 20
14.4744
 30
0.0000
 40
2.1000
  0
LINE
  8
21
 10
181.5530
 20
13.5791
 30
0.0000
 11
182.5926
 21
8.6884
 31
0.0000
  0
LINE
  8
21
 10
182.5926
 20
8.6884
 30
0.0000
 11
178.6800
 21
7.8567
 31
0.0000
  0
LINE
  8
21
 10
178.6800
 20
7.8567
 30
0.0000
 11
177.7018
 21
7.6488
 31
0.0000
  0
LINE
  8
21
 10
177.7018
 20
7.6488
 30
0.0000
 11
177.4939
 21
8.6270
 31
0.0000
  0
LINE
  8
21
 10
177.4939
 20
8.6270
 30
0.0000
 11
176.6623
 21
12.5396
 31
0.0000
  0
LINE
  8
21
 10
176.6623
 20
12.5396
 30
0.0000
 11
181.5530
 21
13.5791
 31
0.0000
  0
LINE
  8
21
 10
177.4939
 20
8.6270
 30
0.0000
 11
178.6800
 21
7.8567
 31
0.0000
  0
CIRCLE
  8
21
 10
177.6082
 20
7.1852
 30
0.0000
 40
0.1414
  0
CIRCLE
  8
21
 10
179.6274
 20
10.6140
 30
0.0000
 40
2.1000
  0
LINE
  8
21
 10
167.1203
 20
11.0283
 30
0.0000
 11
167.6429
 21
6.0556
 31
0.0000
  0
LINE
  8
21
 10
167.6429
 20
6.0556
 30
0.0000
 11
163.6648
 21
5.6375
 31
0.0000
  0
LINE
  8
21
 10
163.6648
 20
5.6375
 30
0.0000
 11
162.6703
 21
5.5330
 31
0.0000
  0
LINE
  8
21
 10
162.6703
 20
5.5330
 30
0.0000
 11
162.5658
 21
6.5275
 31
0.0000
  0
LINE
  8
21
 10
162.5658
 20
6.5275
 30
0.0000
 11
162.1477
 21
10.5056
 31
0.0000
  0
LINE
  8
21
 10
162.1477
 20
10.5056
 30
0.0000
 11
167.1203
 21
11.0283
 31
0.0000
  0
LINE
  8
21
 10
162.5658
 20
6.5275
 30
0.0000
 11
163.6648
 21
5.6375
 31
0.0000
  0
CIRCLE
  8
21
 10
162.5287
 20
5.0817
 30
0.0000
 40
0.1414
  0
CIRCLE
  8
21
 10
164.8953
 20
8.2806
 30
0.0000
 40
2.1000
  0
LINE
  8
21
 10
152.5000
 20
10.0000
 30
0.0000
 11
152.5000
 21
5.0000
 31
0.0000
  0
LINE
  8
21
 10
152.5000
 20
5.0000
 30
0.0000
 11
148.5000
 21
5.0000
 31
0.0000
  0
LINE
  8
21
 10
148.5000
 20
5.0000
 30
0.0000
 11
147.5000
 21
5.0000
 31
0.0000
  0
LINE
  8
21
 10
147.5000
 20
5.0000
 30
0.0000
 11
147.5000
 21
6.0000
 31
0.0000
  0
LINE
  8
21
 10
147.5000
 20
6.0000
 30
0.0000
 11
147.5000
 21
10.0000
 31
0.0000
  0
LINE
  8
21
 10
147.5000
 20
10.0000
 30
0.0000
 11
152.5000
 21
10.0000
 31
0.0000
  0
LINE
  8
21
 10
147.5000
 20
6.0000
 30
0.0000
 11
148.5000
 21
5.0000
 31
0.0000
  0
CIRCLE
  8
21
 10
147.3120
 20
4.5660
 30
0.0000
 40
0.1414
  0
CIRCLE
  8
21
 10
150.0000
 20
7.5000
 30
0.0000
 40
2.1000
  0
LINE
  8
21
 10
137.8523
 20
10.5056
 30
0.0000
 11
137.3297
 21
5.5330
 31
0.0000
  0
LINE
  8
21
 10
137.3297
 20
5.5330
 30
0.0000
 11
133.3516
 21
5.9511
 31
0.0000
  0
LINE
  8
21
 10
133.3516
 20
5.9511
 30
0.0000
 11
132.3571
 21
6.0556
 31
0.0000
  0
LINE
  8
21
 10
132.3571
 20
6.0556
 30
0.0000
 11
132.4616
 21
7.0502
 31
0.0000
  0
LINE
  8
21
 10
132.4616
 20
7.0502
 30
0.0000
 11
132.8797
 21
11.0283
 31
0.0000
  0
LINE
  8
21
 10
132.8797
 20
11.0283
 30
0.0000
 11
137.8523
 21
10.5056
 31
0.0000
  0
LINE
  8
21
 10
132.4616
 20
7.0502
 30
0.0000
 11
133.3516
 21
5.9511
 31
0.0000
  0
CIRCLE
  8
21
 10
132.1247
 20
5.6437
 30
0.0000
 40
0.1414
  0
CIRCLE
  8
21
 10
135.1047
 20
8.2806
 30
0.0000
 40
2.1000
  0
LINE
  8
21
 10
123.3377
 20
12.5396
 30
0.0000
 11
122.2982
 21
7.6488
 31
0.0000
  0
LINE
  8
21
 10
122.2982
 20
7.6488
 30
0.0000
 11
118.3856
 21
8.4805
 31
0.0000
  0
LINE
  8
21
 10
118.3856
 20
8.4805
 30
0.0000
 11
117.4074
 21
8.6884
 31
0.0000
  0
LINE
  8
21
 10
117.4074
 20
8.6884
 30
0.0000
 11
117.6153
 21
9.6665
 31
0.0000
  0
LINE
  8
21
 10
117.6153
 20
9.6665
 30
0.0000
 11
118.4470
 21
13.5791
 31
0.0000
  0
LINE
  8
21
 10
118.4470
 20
13.5791
 30
0.0000
 11
123.3377
 21
12.5396
 31
0.0000
  0
LINE
  8
21
 10
117.6153
 20
9.6665
 30
0.0000
 11
118.3856
 21
8.4805
 31
0.0000
  0
CIRCLE
  8
21
 10
117.1333
 20
8.3029
 30
0.0000
 40
0.1414
  0
CIRCLE
  8
21
 10
120.3726
 20
10.6140
 30
0.0000
 40
2.1000
  0
LINE
  8
21
 10
109.1153
 20
16.0795
 30
0.0000
 11
107.5702
 21
11.3243
 31
0.0000
  0
LINE
  8
21
 10
107.5702
 20
11.3243
 30
0.0000
 11
103.7660
 21
12.5603
 31
0.0000
  0
LINE
  8
21
 10
103.7660
 20
12.5603
 30
0.0000
 11
102.8149
 21
12.8693
 31
0.0000
  0
LINE
  8
21
 10
102.8149
 20
12.8693
 30
0.0000
 11
103.1239
 21
13.8204
 31
0.0000
  0
LINE
  8
21
 10
103.1239
 20
13.8204
 30
0.0000
 11
104.3600
 21
17.6246
 31
0.0000
  0
LINE
  8
21
 10
104.3600
 20
17.6246
 30
0.0000
 11
109.1153
 21
16.0795
 31
0.0000
  0
LINE
  8
21
 10
103.1239
 20
13.8204
 30
0.0000
 11
103.7660
 21
12.5603
 31
0.0000
  0
CIRCLE
  8
21
 10
102.5020
 20
12.5147
 30
0.0000
 40
0.1414
  0
CIRCLE
  8
21
 10
105.9651
 20
14.4744
 30
0.0000
 40
2.1000
  0
LINE
  8
21
 10
95.3407
 20
21.0868
 30
0.0000
 11
93.3071
 21
16.5191
 31
0.0000
  0
LINE
  8
21
 10
93.3071
 20
16.5191
 30
0.0000
 11
89.6529
 21
18.1460
 31
0.0000
  0
LINE
  8
21
 10
89.6529
 20
18.1460
 30
0.0000
 11
88.7393
 21
18.5527
 31
0.0000
  0
LINE
  8
21
 10
88.7393
 20
18.5527
 30
0.0000
 11
89.1461
 21
19.4663
 31
0.0000
  0
LINE
  8
21
 10
89.1461
 20
19.4663
 30
0.0000
 11
90.7730
 21
23.1205
 31
0.0000
  0
LINE
  8
21
 10
90.7730
 20
23.1205
 30
0.0000
 11
95.3407
 21
21.0868
 31
0.0000
  0
LINE
  8
21
 10
89.1461
 20
19.4663
 30
0.0000
 11
89.6529
 21
18.1460
 31
0.0000
  0
CIRCLE
  8
21
 10
88.3911
 20
18.2327
 30
0.0000
 40
0.1414
  0
CIRCLE
  8
21
 10
92.0400
 20
19.8198
 30
0.0000
 40
2.1000
  0
LINE
  8
21
 10
82.1651
 20
27.5064
 30
0.0000
 11
79.6651
 21
23.1763
 31
0.0000
  0
LINE
  8
21
 10
79.6651
 20
23.1763
 30
0.0000
 11
76.2010
 21
25.1763
 31
0.0000
  0
LINE
  8
21
 10
76.2010
 20
25.1763
 30
0.0000
 11
75.3349
 21
25.6763
 31
0.0000
  0
LINE
  8
21
 10
75.3349
 20
25.6763
 30
0.0000
 11
75.8349
 21
26.5423
 31
0.0000
  0
LINE
  8
21
 10
75.8349
 20
26.5423
 30
0.0000
 11
77.8349
 21
30.0064
 31
0.0000
  0
LINE
  8
21
 10
77.8349
 20
30.0064
 30
0.0000
 11
82.1651
 21
27.5064
 31
0.0000
  0
LINE
  8
21
 10
75.8349
 20
26.5423
 30
0.0000
 11
76.2010
 21
25.1763
 31
0.0000
  0
CIRCLE
  8
21
 10
74.9551
 20
25.3945
 30
0.0000
 40
0.1414
  0
CIRCLE
  8
21
 10
78.7500
 20
26.5914
 30
0.0000
 40
2.1000
  0
LINE
  8
21
 10
69.7326
 20
35.2682
 30
0.0000
 11
66.7937
 21
31.2231
 31
0.0000
  0
LINE
  8
21
 10
66.7937
 20
31.2231
 30
0.0000
 11
63.5576
 21
33.5742
 31
0.0000
  0
LINE
  8
21
 10
63.5576
 20
33.5742
 30
0.0000
 11
62.7486
 21
34.1620
 31
0.0000
  0
LINE
  8
21
 10
62.7486
 20
34.1620
 30
0.0000
 11
63.3364
 21
34.9710
 31
0.0000
  0
LINE
  8
21
 10
63.3364
 20
34.9710
 30
0.0000
 11
65.6875
 21
38.2071
 31
0.0000
  0
LINE
  8
21
 10
65.6875
 20
38.2071
 30
0.0000
 11
69.7326
 21
35.2682
 31
0.0000
  0
LINE
  8
21
 10
63.3364
 20
34.9710
 30
0.0000
 11
63.5576
 21
33.5742
 31
0.0000
  0
CIRCLE
  8
21
 10
62.3414
 20
33.9214
 30
0.0000
 40
0.1414
  0
CIRCLE
  8
21
 10
66.2406
 20
34.7151
 30
0.0000
 40
2.1000
  0
LINE
  8
21
 10
58.1796
 20
44.2869
 30
0.0000
 11
54.8339
 21
40.5712
 31
0.0000
  0
LINE
  8
21
 10
54.8339
 20
40.5712
 30
0.0000
 11
51.8613
 21
43.2477
 31
0.0000
  0
LINE
  8
21
 10
51.8613
 20
43.2477
 30
0.0000
 11
51.1182
 21
43.9168
 31
0.0000
  0
LINE
  8
21
 10
51.1182
 20
43.9168
 30
0.0000
 11
51.7873
 21
44.6600
 31
0.0000
  0
LINE
  8
21
 10
51.7873
 20
44.6600
 30
0.0000
 11
54.4639
 21
47.6326
 31
0.0000
  0
LINE
  8
21
 10
54.4639
 20
47.6326
 30
0.0000
 11
58.1796
 21
44.2869
 31
0.0000
  0
LINE
  8
21
 10
51.7873
 20
44.6600
 30
0.0000
 11
51.8613
 21
43.2477
 31
0.0000
  0
CIRCLE
  8
21
 10
50.6881
 20
43.7201
 30
0.0000
 40
0.1414
  0
CIRCLE
  8
21
 10
54.6489
 20
44.1019
 30
0.0000
 40
2.1000
  0
LINE
  8
21
 10
47.6326
 20
54.4639
 30
0.0000
 11
43.9168
 21
51.1182
 31
0.0000
  0
LINE
  8
21
 10
43.9168
 20
51.1182
 30
0.0000
 11
41.2403
 21
54.0908
 31
0.0000
  0
LINE
  8
21
 10
41.2403
 20
54.0908
 30
0.0000
 11
40.5712
 21
54.8339
 31
0.0000
  0
LINE
  8
21
 10
40.5712
 20
54.8339
 30
0.0000
 11
41.3143
 21
55.5031
 31
0.0000
  0
LINE
  8
21
 10
41.3143
 20
55.5031
 30
0.0000
 11
44.2869
 21
58.1796
 31
0.0000
  0
LINE
  8
21
 10
44.2869
 20
58.1796
 30
0.0000
 11
47.6326
 21
54.4639
 31
0.0000
  0
LINE
  8
21
 10
41.3143
 20
55.5031
 30
0.0000
 11
41.2403
 21
54.0908
 31
0.0000
  0
CIRCLE
  8
21
 10
40.1228
 20
54.6832
 30
0.0000
 40
0.1414
  0
CIRCLE
  8
21
 10
44.1019
 20
54.6489
 30
0.0000
 40
2.1000
  0
LINE
  8
21
 10
38.2071
 20
65.6875
 30
0.0000
 11
34.1620
 21
62.7486
 31
0.0000
  0
LINE
  8
21
 10
34.1620
 20
62.7486
 30
0.0000
 11
31.8109
 21
65.9847
 31
0.0000
  0
LINE
  8
21
 10
31.8109
 20
65.9847
 30
0.0000
 11
31.2231
 21
66.7937
 31
0.0000
  0
LINE
  8
21
 10
31.2231
 20
66.7937
 30
0.0000
 11
32.0321
 21
67.3815
 31
0.0000
  0
LINE
  8
21
 10
32.0321
 20
67.3815
 30
0.0000
 11
35.2682
 21
69.7326
 31
0.0000
  0
LINE
  8
21
 10
35.2682
 20
69.7326
 30
0.0000
 11
38.2071
 21
65.6875
 31
0.0000
  0
LINE
  8
21
 10
32.0321
 20
67.3815
 30
0.0000
 11
31.8109
 21
65.9847
 31
0.0000
  0
CIRCLE
  8
21
 10
30.7615
 20
66.6907
 30
0.0000
 40
0.1414
  0
CIRCLE
  8
21
 10
34.7151
 20
66.2406
 30
0.0000
 40
2.1000
  0
LINE
  8
21
 10
30.0064
 20
77.8349
 30
0.0000
 11
25.6763
 21
75.3349
 31
0.0000
  0
LINE
  8
21
 10
25.6763
 20
75.3349
 30
0.0000
 11
23.6763
 21
78.7990
 31
0.0000
  0
LINE
  8
21
 10
23.6763
 20
78.7990
 30
0.0000
 11
23.1763
 21
79.6651
 31
0.0000
  0
LINE
  8
21
 10
23.1763
 20
79.6651
 30
0.0000
 11
24.0423
 21
80.1651
 31
0.0000
  0
LINE
  8
21
 10
24.0423
 20
80.1651
 30
0.0000
 11
27.5064
 21
82.1651
 31
0.0000
  0
LINE
  8
21
 10
27.5064
 20
82.1651
 30
0.0000
 11
30.0064
 21
77.8349
 31
0.0000
  0
LINE
  8
21
 10
24.0423
 20
80.1651
 30
0.0000
 11
23.6763
 21
78.7990
 31
0.0000
  0
CIRCLE
  8
21
 10
22.7065
 20
79.6109
 30
0.0000
 40
0.1414
  0
CIRCLE
  8
21
 10
26.5914
 20
78.7500
 30
0.0000
 40
2.1000
  0
LINE
  8
21
 10
23.1205
 20
90.7730
 30
0.0000
 11
18.5527
 21
88.7393
 31
0.0000
  0
LINE
  8
21
 10
18.5527
 20
88.7393
 30
0.0000
 11
16.9258
 21
92.3935
 31
0.0000
  0
LINE
  8
21
 10
16.9258
 20
92.3935
 30
0.0000
 11
16.5191
 21
93.3071
 31
0.0000
  0
LINE
  8
21
 10
16.5191
 20
93.3071
 30
0.0000
 11
17.4326
 21
93.7138
 31
0.0000
  0
LINE
  8
21
 10
17.4326
 20
93.7138
 30
0.0000
 11
21.0868
 21
95.3407
 31
0.0000
  0
LINE
  8
21
 10
21.0868
 20
95.3407
 30
0.0000
 11
23.1205
 21
90.7730
 31
0.0000
  0
LINE
  8
21
 10
17.4326
 20
93.7138
 30
0.0000
 11
16.9258
 21
92.3935
 31
0.0000
  0
CIRCLE
  8
21
 10
16.0461
 20
93.3023
 30
0.0000
 40
0.1414
  0
CIRCLE
  8
21
 10
19.8198
 20
92.0400
 30
0.0000
 40
2.1000
  0
LINE
  8
21
 10
17.6246
 20
104.3600
 30
0.0000
 11
12.8693
 21
102.8149
 31
0.0000
  0
LINE
  8
21
 10
12.8693
 20
102.8149
 30
0.0000
 11
11.6333
 21
106.6191
 31
0.0000
  0
LINE
  8
21
 10
11.6333
 20
106.6191
 30
0.0000
 11
11.3243
 21
107.5702
 31
0.0000
  0
LINE
  8
21
 10
11.3243
 20
107.5702
 30
0.0000
 11
12.2753
 21
107.8792
 31
0.0000
  0
LINE
  8
21
 10
12.2753
 20
107.8792
 30
0.0000
 11
16.0795
 21
109.1153
 31
0.0000
  0
LINE
  8
21
 10
16.0795
 20
109.1153
 30
0.0000
 11
17.6246
 21
104.3600
 31
0.0000
  0
LINE
  8
21
 10
12.2753
 20
107.8792
 30
0.0000
 11
11.6333
 21
106.6191
 31
0.0000
  0
CIRCLE
  8
21
 10
10.8534
 20
107.6149
 30
0.0000
 40
0.1414
  0
CIRCLE
  8
21
 10
14.4744
 20
105.9651
 30
0.0000
 40
2.1000
  0
LINE
  8
21
 10
13.5791
 20
118.4470
 30
0.0000
 11
8.6884
 21
117.4074
 31
0.0000
  0
LINE
  8
21
 10
8.6884
 20
117.4074
 30
0.0000
 11
7.8567
 21
121.3200
 31
0.0000
  0
LINE
  8
21
 10
7.8567
 20
121.3200
 30
0.0000
 11
7.6488
 21
122.2982
 31
0.0000
  0
LINE
  8
21
 10
7.6488
 20
122.2982
 30
0.0000
 11
8.6270
 21
122.5061
 31
0.0000
  0
LINE
  8
21
 10
8.6270
 20
122.5061
 30
0.0000
 11
12.5396
 21
123.3377
 31
0.0000
  0
LINE
  8
21
 10
12.5396
 20
123.3377
 30
0.0000
 11
13.5791
 21
118.4470
 31
0.0000
  0
LINE
  8
21
 10
8.6270
 20
122.5061
 30
0.0000
 11
7.8567
 21
121.3200
 31
0.0000
  0
CIRCLE
  8
21
 10
7.1852
 20
122.3918
 30
0.0000
 40
0.1414
  0
CIRCLE
  8
21
 10
10.6140
 20
120.3726
 30
0.0000
 40
2.1000
  0
LINE
  8
21
 10
11.0283
 20
132.8797
 30
0.0000
 11
6.0556
 21
132.3571
 31
0.0000
  0
LINE
  8
21
 10
6.0556
 20
132.3571
 30
0.0000
 11
5.6375
 21
136.3352
 31
0.0000
  0
LINE
  8
21
 10
5.6375
 20
136.3352
 30
0.0000
 11
5.5330
 21
137.3297
 31
0.0000
  0
LINE
  8
21
 10
5.5330
 20
137.3297
 30
0.0000
 11
6.5275
 21
137.4342
 31
0.0000
  0
LINE
  8
21
 10
6.5275
 20
137.4342
 30
0.0000
 11
10.5056
 21
137.8523
 31
0.0000
  0
LINE
  8
21
 10
10.5056
 20
137.8523
 30
0.0000
 11
11.0283
 21
132.8797
 31
0.0000
  0
LINE
  8
21
 10
6.5275
 20
137.4342
 30
0.0000
 11
5.6375
 21
136.3352
 31
0.0000
  0
CIRCLE
  8
21
 10
5.0817
 20
137.4713
 30
0.0000
 40
0.1414
  0
CIRCLE
  8
21
 10
8.2806
 20
135.1047
 30
0.0000
 40
2.1000
  0
LINE
  8
21
 10
10.0000
 20
147.5000
 30
0.0000
 11
5.0000
 21
147.5000
 31
0.0000
  0
LINE
  8
21
 10
5.0000
 20
147.5000
 30
0.0000
 11
5.0000
 21
151.5000
 31
0.0000
  0
LINE
  8
21
 10
5.0000
 20
151.5000
 30
0.0000
 11
5.0000
 21
152.5000
 31
0.0000
  0
LINE
  8
21
 10
5.0000
 20
152.5000
 30
0.0000
 11
6.0000
 21
152.5000
 31
0.0000
  0
LINE
  8
21
 10
6.0000
 20
152.5000
 30
0.0000
 11
10.0000
 21
152.5000
 31
0.0000
  0
LINE
  8
21
 10
10.0000
 20
152.5000
 30
0.0000
 11
10.0000
 21
147.5000
 31
0.0000
  0
LINE
  8
21
 10
6.0000
 20
152.5000
 30
0.0000
 11
5.0000
 21
151.5000
 31
0.0000
  0
CIRCLE
  8
21
 10
4.5660
 20
152.6880
 30
0.0000
 40
0.1414
  0
CIRCLE
  8
21
 10
7.5000
 20
150.0000
 30
0.0000
 40
2.1000
  0
LINE
  8
21
 10
10.5056
 20
162.1477
 30
0.0000
 11
5.5330
 21
162.6703
 31
0.0000
  0
LINE
  8
21
 10
5.5330
 20
162.6703
 30
0.0000
 11
5.9511
 21
166.6484
 31
0.0000
  0
LINE
  8
21
 10
5.9511
 20
166.6484
 30
0.0000
 11
6.0556
 21
167.6429
 31
0.0000
  0
LINE
  8
21
 10
6.0556
 20
167.6429
 30
0.0000
 11
7.0502
 21
167.5384
 31
0.0000
  0
LINE
  8
21
 10
7.0502
 20
167.5384
 30
0.0000
 11
11.0283
 21
167.1203
 31
0.0000
  0
LINE
  8
21
 10
11.0283
 20
167.1203
 30
0.0000
 11
10.5056
 21
162.1477
 31
0.0000
  0
LINE
  8
21
 10
7.0502
 20
167.5384
 30
0.0000
 11
5.9511
 21
166.6484
 31
0.0000
  0
CIRCLE
  8
21
 10
5.6437
 20
167.8753
 30
0.0000
 40
0.1414
  0
CIRCLE
  8
21
 10
8.2806
 20
164.8953
 30
0.0000
 40
2.1000
  0
LINE
  8
21
 10
12.5396
 20
176.6623
 30
0.0000
 11
7.6488
 21
177.7018
 31
0.0000
  0
LINE
  8
21
 10
7.6488
 20
177.7018
 30
0.0000
 11
8.4805
 21
181.6144
 31
0.0000
  0
LINE
  8
21
 10
8.4805
 20
181.6144
 30
0.0000
 11
8.6884
 21
182.5926
 31
0.0000
  0
LINE
  8
21
 10
8.6884
 20
182.5926
 30
0.0000
 11
9.6665
 21
182.3847
 31
0.0000
  0
LINE
  8
21
 10
9.6665
 20
182.3847
 30
0.0000
 11
13.5791
 21
181.5530
 31
0.0000
  0
LINE
  8
21
 10
13.5791
 20
181.5530
 30
0.0000
 11
12.5396
 21
176.6623
 31
0.0000
  0
LINE
  8
21
 10
9.6665
 20
182.3847
 30
0.0000
 11
8.4805
 21
181.6144
 31
0.0000
  0
CIRCLE
  8
21
 10
8.3029
 20
182.8667
 30
0.0000
 40
0.1414
  0
CIRCLE
  8
21
 10
10.6140
 20
179.6274
 30
0.0000
 40
2.1000
  0
LINE
  8
21
 10
16.0795
 20
190.8847
 30
0.0000
 11
11.3243
 21
192.4298
 31
0.0000
  0
LINE
  8
21
 10
11.3243
 20
192.4298
 30
0.0000
 11
12.5603
 21
196.2340
 31
0.0000
  0
LINE
  8
21
 10
12.5603
 20
196.2340
 30
0.0000
 11
12.8693
 21
197.1851
 31
0.0000
  0
LINE
  8
21
 10
12.8693
 20
197.1851
 30
0.0000
 11
13.8204
 21
196.8761
 31
0.0000
  0
LINE
  8
21
 10
13.8204
 20
196.8761
 30
0.0000
 11
17.6246
 21
195.6400
 31
0.0000
  0
LINE
  8
21
 10
17.6246
 20
195.6400
 30
0.0000
 11
16.0795
 21
190.8847
 31
0.0000
  0
LINE
  8
21
 10
13.8204
 20
196.8761
 30
0.0000
 11
12.5603
 21
196.2340
 31
0.0000
  0
CIRCLE
  8
21
 10
12.5147
 20
197.4980
 30
0.0000
 40
0.1414
  0
CIRCLE
  8
21
 10
14.4744
 20
194.0349
 30
0.0000
 40
2.1000
  0
LINE
  8
21
 10
21.0868
 20
204.6593
 30
0.0000
 11
16.5191
 21
206.6929
 31
0.0000
  0
LINE
  8
21
 10
16.5191
 20
206.6929
 30
0.0000
 11
18.1460
 21
210.3471
 31
0.0000
  0
LINE
  8
21
 10
18.1460
 20
210.3471
 30
0.0000
 11
18.5527
 21
211.2607
 31
0.0000
  0
LINE
  8
21
 10
18.5527
 20
211.2607
 30
0.0000
 11
19.4663
 21
210.8539
 31
0.0000
  0
LINE
  8
21
 10
19.4663
 20
210.8539
 30
0.0000
 11
23.1205
 21
209.2270
 31
0.0000
  0
LINE
  8
21
 10
23.1205
 20
209.2270
 30
0.0000
 11
21.0868
 21
204.6593
 31
0.0000
  0
LINE
  8
21
 10
19.4663
 20
210.8539
 30
0.0000
 11
18.1460
 21
210.3471
 31
0.0000
  0
CIRCLE
  8
21
 10
18.2327
 20
211.6089
 30
0.0000
 40
0.1414
  0
CIRCLE
  8
21
 10
19.8198
 20
207.9600
 30
0.0000
 40
2.1000
  0
LINE
  8
21
 10
27.5064
 20
217.8349
 30
0.0000
 11
23.1763
 21
220.3349
 31
0.0000
  0
LINE
  8
21
 10
23.1763
 20
220.3349
 30
0.0000
 11
25.1763
 21
223.7990
 31
0.0000
  0
LINE
  8
21
 10
25.1763
 20
223.7990
 30
0.0000
 11
25.6763
 21
224.6651
 31
0.0000
  0
LINE
  8
21
 10
25.6763
 20
224.6651
 30
0.0000
 11
26.5423
 21
224.1651
 31
0.0000
  0
LINE
  8
21
 10
26.5423
 20
224.1651
 30
0.0000
 11
30.0064
 21
222.1651
 31
0.0000
  0
LINE
  8
21
 10
30.0064
 20
222.1651
 30
0.0000
 11
27.5064
 21
217.8349
 31
0.0000
  0
LINE
  8
21
 10
26.5423
 20
224.1651
 30
0.0000
 11
25.1763
 21
223.7990
 31
0.0000
  0
CIRCLE
  8
21
 10
25.3945
 20
225.0449
 30
0.0000
 40
0.1414
  0
CIRCLE
  8
21
 10
26.5914
 20
221.2500
 30
0.0000
 40
2.1000
  0
LINE
  8
21
 10
35.2682
 20
230.2674
 30
0.0000
 11
31.2231
 21
233.2063
 31
0.0000
  0
LINE
  8
21
 10
31.2231
 20
233.2063
 30
0.0000
 11
33.5742
 21
236.4424
 31
0.0000
  0
LINE
  8
21
 10
33.5742
 20
236.4424
 30
0.0000
 11
34.1620
 21
237.2514
 31
0.0000
  0
LINE
  8
21
 10
34.1620
 20
237.2514
 30
0.0000
 11
34.9710
 21
236.6636
 31
0.0000
  0
LINE
  8
21
 10
34.9710
 20
236.6636
 30
0.0000
 11
38.2071
 21
234.3125
 31
0.0000
  0
LINE
  8
21
 10
38.2071
 20
234.3125
 30
0.0000
 11
35.2682
 21
230.2674
 31
0.0000
  0
LINE
  8
21
 10
34.9710
 20
236.6636
 30
0.0000
 11
33.5742
 21
236.4424
 31
0.0000
  0
CIRCLE
  8
21
 10
33.9214
 20
237.6586
 30
0.0000
 40
0.1414
  0
CIRCLE
  8
21
 10
34.7151
 20
233.7594
 30
0.0000
 40
2.1000
  0
LINE
  8
21
 10
44.2869
 20
241.8204
 30
0.0000
 11
40.5712
 21
245.1661
 31
0.0000
  0
LINE
  8
21
 10
40.5712
 20
245.1661
 30
0.0000
 11
43.2477
 21
248.1387
 31
0.0000
  0
LINE
  8
21
 10
43.2477
 20
248.1387
 30
0.0000
 11
43.9168
 21
248.8818
 31
0.0000
  0
LINE
  8
21
 10
43.9168
 20
248.8818
 30
0.0000
 11
44.6600
 21
248.2127
 31
0.0000
  0
LINE
  8
21
 10
44.6600
 20
248.2127
 30
0.0000
 11
47.6326
 21
245.5361
 31
0.0000
  0
LINE
  8
21
 10
47.6326
 20
245.5361
 30
0.0000
 11
44.2869
 21
241.8204
 31
0.0000
  0
LINE
  8
21
 10
44.6600
 20
248.2127
 30
0.0000
 11
43.2477
 21
248.1387
 31
0.0000
  0
CIRCLE
  8
21
 10
43.7201
 20
249.3119
 30
0.0000
 40
0.1414
  0
CIRCLE
  8
21
 10
44.1019
 20
245.3511
 30
0.0000
 40
2.1000
  0
LINE
  8
21
 10
54.4639
 20
252.3674
 30
0.0000
 11
51.1182
 21
256.0832
 31
0.0000
  0
LINE
  8
21
 10
51.1182
 20
256.0832
 30
0.0000
 11
54.0908
 21
258.7597
 31
0.0000
  0
LINE
  8
21
 10
54.0908
 20
258.7597
 30
0.0000
 11
54.8339
 21
259.4288
 31
0.0000
  0
LINE
  8
21
 10
54.8339
 20
259.4288
 30
0.0000
 11
55.5031
 21
258.6857
 31
0.0000
  0
LINE
  8
21
 10
55.5031
 20
258.6857
 30
0.0000
 11
58.1796
 21
255.7131
 31
0.0000
  0
LINE
  8
21
 10
58.1796
 20
255.7131
 30
0.0000
 11
54.4639
 21
252.3674
 31
0.0000
  0
LINE
  8
21
 10
55.5031
 20
258.6857
 30
0.0000
 11
54.0908
 21
258.7597
 31
0.0000
  0
CIRCLE
  8
21
 10
54.6832
 20
259.8771
 30
0.0000
 40
0.1414
  0
CIRCLE
  8
21
 10
54.6489
 20
255.8981
 30
0.0000
 40
2.1000
  0
LINE
  8
21
 10
65.6875
 20
261.7929
 30
0.0000
 11
62.7486
 21
265.8380
 31
0.0000
  0
LINE
  8
21
 10
62.7486
 20
265.8380
 30
0.0000
 11
65.9847
 21
268.1891
 31
0.0000
  0
LINE
  8
21
 10
65.9847
 20
268.1891
 30
0.0000
 11
66.7937
 21
268.7769
 31
0.0000
  0
LINE
  8
21
 10
66.7937
 20
268.7769
 30
0.0000
 11
67.3815
 21
267.9679
 31
0.0000
  0
LINE
  8
21
 10
67.3815
 20
267.9679
 30
0.0000
 11
69.7326
 21
264.7318
 31
0.0000
  0
LINE
  8
21
 10
69.7326
 20
264.7318
 30
0.0000
 11
65.6875
 21
261.7929
 31
0.0000
  0
LINE
  8
21
 10
67.3815
 20
267.9679
 30
0.0000
 11
65.9847
 21
268.1891
 31
0.0000
  0
CIRCLE
  8
21
 10
66.6907
 20
269.2385
 30
0.0000
 40
0.1414
  0
CIRCLE
  8
21
 10
66.2406
 20
265.2849
 30
0.0000
 40
2.1000
  0
LINE
  8
21
 10
77.8349
 20
269.9936
 30
0.0000
 11
75.3349
 21
274.3237
 31
0.0000
  0
LINE
  8
21
 10
75.3349
 20
274.3237
 30
0.0000
 11
78.7990
 21
276.3237
 31
0.0000
  0
LINE
  8
21
 10
78.7990
 20
276.3237
 30
0.0000
 11
79.6651
 21
276.8237
 31
0.0000
  0
LINE
  8
21
 10
79.6651
 20
276.8237
 30
0.0000
 11
80.1651
 21
275.9577
 31
0.0000
  0
LINE
  8
21
 10
80.1651
 20
275.9577
 30
0.0000
 11
82.1651
 21
272.4936
 31
0.0000
  0
LINE
  8
21
 10
82.1651
 20
272.4936
 30
0.0000
 11
77.8349
 21
269.9936
 31
0.0000
  0
LINE
  8
21
 10
80.1651
 20
275.9577
 30
0.0000
 11
78.7990
 21
276.3237
 31
0.0000
  0
CIRCLE
  8
21
 10
79.6109
 20
277.2935
 30
0.0000
 40
0.1414
  0
CIRCLE
  8
21
 10
78.7500
 20
273.4086
 30
0.0000
 40
2.1000
  0
LINE
  8
21
 10
90.7730
 20
276.8795
 30
0.0000
 11
88.7393
 21
281.4472
 31
0.0000
  0
LINE
  8
21
 10
88.7393
 20
281.4472
 30
0.0000
 11
92.3935
 21
283.0742
 31
0.0000
  0
LINE
  8
21
 10
92.3935
 20
283.0742
 30
0.0000
 11
93.3071
 21
283.4809
 31
0.0000
  0
LINE
  8
21
 10
93.3071
 20
283.4809
 30
0.0000
 11
93.7138
 21
282.5674
 31
0.0000
  0
LINE
  8
21
 10
93.7138
 20
282.5674
 30
0.0000
 11
95.3407
 21
278.9132
 31
0.0000
  0
LINE
  8
21
 10
95.3407
 20
278.9132
 30
0.0000
 11
90.7730
 21
276.8795
 31
0.0000
  0
LINE
  8
21
 10
93.7138
 20
282.5674
 30
0.0000
 11
92.3935
 21
283.0742
 31
0.0000
  0
CIRCLE
  8
21
 10
93.3023
 20
283.9539
 30
0.0000
 40
0.1414
  0
CIRCLE
  8
21
 10
92.0400
 20
280.1802
 30
0.0000
 40
2.1000
  0
LINE
  8
21
 10
104.3600
 20
282.3754
 30
0.0000
 11
102.8149
 21
287.1307
 31
0.0000
  0
LINE
  8
21
 10
102.8149
 20
287.1307
 30
0.0000
 11
106.6191
 21
288.3667
 31
0.0000
  0
LINE
  8
21
 10
106.6191
 20
288.3667
 30
0.0000
 11
107.5702
 21
288.6757
 31
0.0000
  0
LINE
  8
21
 10
107.5702
 20
288.6757
 30
0.0000
 11
107.8792
 21
287.7247
 31
0.0000
  0
LINE
  8
21
 10
107.8792
 20
287.7247
 30
0.0000
 11
109.1153
 21
283.9205
 31
0.0000
  0
LINE
  8
21
 10
109.1153
 20
283.9205
 30
0.0000
 11
104.3600
 21
282.3754
 31
0.0000
  0
LINE
  8
21
 10
107.8792
 20
287.7247
 30
0.0000
 11
106.6191
 21
288.3667
 31
0.0000
  0
CIRCLE
  8
21
 10
107.6149
 20
289.1466
 30
0.0000
 40
0.1414
  0
CIRCLE
  8
21
 10
105.9651
 20
285.5256
 30
0.0000
 40
2.1000
  0
LINE
  8
21
 10
118.4470
 20
286.4209
 30
0.0000
 11
117.4074
 21
291.3116
 31
0.0000
  0
LINE
  8
21
 10
117.4074
 20
291.3116
 30
0.0000
 11
121.3200
 21
292.1433
 31
0.0000
  0
LINE
  8
21
 10
121.3200
 20
292.1433
 30
0.0000
 11
122.2982
 21
292.3512
 31
0.0000
  0
LINE
  8
21
 10
122.2982
 20
292.3512
 30
0.0000
 11
122.5061
 21
291.3730
 31
0.0000
  0
LINE
  8
21
 10
122.5061
 20
291.3730
 30
0.0000
 11
123.3377
 21
287.4604
 31
0.0000
  0
LINE
  8
21
 10
123.3377
 20
287.4604
 30
0.0000
 11
118.4470
 21
286.4209
 31
0.0000
  0
LINE
  8
21
 10
122.5061
 20
291.3730
 30
0.0000
 11
121.3200
 21
292.1433
 31
0.0000
  0
CIRCLE
  8
21
 10
122.3918
 20
292.8148
 30
0.0000
 40
0.1414
  0
CIRCLE
  8
21
 10
120.3726
 20
289.3860
 30
0.0000
 40
2.1000
  0
LINE
  8
21
 10
132.8797
 20
288.9717
 30
0.0000
 11
132.3571
 21
293.9443
 31
0.0000
  0
LINE
  8
21
 10
132.3571
 20
293.9443
 30
0.0000
 11
136.3352
 21
294.3625
 31
0.0000
  0
LINE
  8
21
 10
136.3352
 20
294.3625
 30
0.0000
 11
137.3297
 21
294.4670
 31
0.0000
  0
LINE
  8
21
 10
137.3297
 20
294.4670
 30
0.0000
 11
137.4342
 21
293.4725
 31
0.0000
  0
LINE
  8
21
 10
137.4342
 20
293.4725
 30
0.0000
 11
137.8523
 21
289.4944
 31
0.0000
  0
LINE
  8
21
 10
137.8523
 20
289.4944
 30
0.0000
 11
132.8797
 21
288.9717
 31
0.0000
  0
LINE
  8
21
 10
137.4342
 20
293.4725
 30
0.0000
 11
136.3352
 21
294.3625
 31
0.0000
  0
CIRCLE
  8
21
 10
137.4713
 20
294.9183
 30
0.0000
 40
0.1414
  0
CIRCLE
  8
21
 10
135.1047
 20
291.7194
 30
0.0000
 40
2.1000
  0
LINE
  8
21
 10
147.5000
 20
290.0000
 30
0.0000
 11
147.5000
 21
295.0000
 31
0.0000
  0
LINE
  8
21
 10
147.5000
 20
295.0000
 30
0.0000
 11
151.5000
 21
295.0000
 31
0.0000
  0
LINE
  8
21
 10
151.5000
 20
295.0000
 30
0.0000
 11
152.5000
 21
295.0000
 31
0.0000
  0
LINE
  8
21
 10
152.5000
 20
295.0000
 30
0.0000
 11
152.5000
 21
294.0000
 31
0.0000
  0
LINE
  8
21
 10
152.5000
 20
294.0000
 30
0.0000
 11
152.5000
 21
290.0000
 31
0.0000
  0
LINE
  8
21
 10
152.5000
 20
290.0000
 30
0.0000
 11
147.5000
 21
290.0000
 31
0.0000
  0
LINE
  8
21
 10
152.5000
 20
294.0000
 30
0.0000
 11
151.5000
 21
295.0000
 31
0.0000
  0
CIRCLE
  8
21
 10
152.6880
 20
295.4340
 30
0.0000
 40
0.1414
  0
CIRCLE
  8
21
 10
150.0000
 20
292.5000
 30
0.0000
 40
2.1000
  0
LINE
  8
21
 10
40.0000
 20
170.0000
 30
0.0000
 11
35.0000
 21
170.0000
 31
0.0000
  0
LINE
  8
21
 10
35.0000
 20
170.0000
 30
0.0000
 11
35.0000
 21
174.0000
 31
0.0000
  0
LINE
  8
21
 10
35.0000
 20
174.0000
 30
0.0000
 11
35.0000
 21
175.0000
 31
0.0000
  0
LINE
  8
21
 10
35.0000
 20
175.0000
 30
0.0000
 11
36.0000
 21
175.0000
 31
0.0000
  0
LINE
  8
21
 10
36.0000
 20
175.0000
 30
0.0000
 11
40.0000
 21
175.0000
 31
0.0000
  0
LINE
  8
21
 10
40.0000
 20
175.0000
 30
0.0000
 11
40.0000
 21
170.0000
 31
0.0000
  0
LINE
  8
21
 10
36.0000
 20
175.0000
 30
0.0000
 11
35.0000
 21
174.0000
 31
0.0000
  0
CIRCLE
  8
21
 10
34.5660
 20
175.1880
 30
0.0000
 40
0.1414
  0
CIRCLE
  8
21
 10
37.5000
 20
172.5000
 30
0.0000
 40
2.1000
  0
LINE
  8
21
 10
47.5000
 20
170.0000
 30
0.0000
 11
42.5000
 21
170.0000
 31
0.0000
  0
LINE
  8
21
 10
42.5000
 20
170.0000
 30
0.0000
 11
42.5000
 21
174.0000
 31
0.0000
  0
LINE
  8
21
 10
42.5000
 20
174.0000
 30
0.0000
 11
42.5000
 21
175.0000
 31
0.0000
  0
LINE
  8
21
 10
42.5000
 20
175.0000
 30
0.0000
 11
43.5000
 21
175.0000
 31
0.0000
  0
LINE
  8
21
 10
43.5000
 20
175.0000
 30
0.0000
 11
47.5000
 21
175.0000
 31
0.0000
  0
LINE
  8
21
 10
47.5000
 20
175.0000
 30
0.0000
 11
47.5000
 21
170.0000
 31
0.0000
  0
LINE
  8
21
 10
43.5000
 20
175.0000
 30
0.0000
 11
42.5000
 21
174.0000
 31
0.0000
  0
CIRCLE
  8
21
 10
42.0660
 20
175.1880
 30
0.0000
 40
0.1414
  0
CIRCLE
  8
21
 10
45.0000
 20
172.5000
 30
0.0000
 40
2.1000
  0
LINE
  8
21
 10
50.0000
 20
162.5000
 30
0.0000
 11
50.0000
 21
167.5000
 31
0.0000
  0
LINE
  8
21
 10
50.0000
 20
167.5000
 30
0.0000
 11
54.0000
 21
167.5000
 31
0.0000
  0
LINE
  8
21
 10
54.0000
 20
167.5000
 30
0.0000
 11
55.0000
 21
167.5000
 31
0.0000
  0
LINE
  8
21
 10
55.0000
 20
167.5000
 30
0.0000
 11
55.0000
 21
166.5000
 31
0.0000
  0
LINE
  8
21
 10
55.0000
 20
166.5000
 30
0.0000
 11
55.0000
 21
162.5000
 31
0.0000
  0
LINE
  8
21
 10
55.0000
 20
162.5000
 30
0.0000
 11
50.0000
 21
162.5000
 31
0.0000
  0
LINE
  8
21
 10
55.0000
 20
166.5000
 30
0.0000
 11
54.0000
 21
167.5000
 31
0.0000
  0
CIRCLE
  8
21
 10
55.1880
 20
167.9340
 30
0.0000
 40
0.1414
  0
CIRCLE
  8
21
 10
52.5000
 20
165.0000
 30
0.0000
 40
2.1000
  0
LINE
  8
21
 10
50.0000
 20
155.0000
 30
0.0000
 11
50.0000
 21
160.0000
 31
0.0000
  0
LINE
  8
21
 10
50.0000
 20
160.0000
 30
0.0000
 11
54.0000
 21
160.0000
 31
0.0000
  0
LINE
  8
21
 10
54.0000
 20
160.0000
 30
0.0000
 11
55.0000
 21
160.0000
 31
0.0000
  0
LINE
  8
21
 10
55.0000
 20
160.0000
 30
0.0000
 11
55.0000
 21
159.0000
 31
0.0000
  0
LINE
  8
21
 10
55.0000
 20
159.0000
 30
0.0000
 11
55.0000
 21
155.0000
 31
0.0000
  0
LINE
  8
21
 10
55.0000
 20
155.0000
 30
0.0000
 11
50.0000
 21
155.0000
 31
0.0000
  0
LINE
  8
21
 10
55.0000
 20
159.0000
 30
0.0000
 11
54.0000
 21
160.0000
 31
0.0000
  0
CIRCLE
  8
21
 10
55.1880
 20
160.4340
 30
0.0000
 40
0.1414
  0
CIRCLE
  8
21
 10
52.5000
 20
157.5000
 30
0.0000
 40
2.1000
  0
LINE
  8
21
 10
50.0000
 20
140.0000
 30
0.0000
 11
50.0000
 21
145.0000
 31
0.0000
  0
LINE
  8
21
 10
50.0000
 20
145.0000
 30
0.0000
 11
54.0000
 21
145.0000
 31
0.0000
  0
LINE
  8
21
 10
54.0000
 20
145.0000
 30
0.0000
 11
55.0000
 21
145.0000
 31
0.0000
  0
LINE
  8
21
 10
55.0000
 20
145.0000
 30
0.0000
 11
55.0000
 21
144.0000
 31
0.0000
  0
LINE
  8
21
 10
55.0000
 20
144.0000
 30
0.0000
 11
55.0000
 21
140.0000
 31
0.0000
  0
LINE
  8
21
 10
55.0000
 20
140.0000
 30
0.0000
 11
50.0000
 21
140.0000
 31
0.0000
  0
LINE
  8
21
 10
55.0000
 20
144.0000
 30
0.0000
 11
54.0000
 21
145.0000
 31
0.0000
  0
CIRCLE
  8
21
 10
55.1880
 20
145.4340
 30
0.0000
 40
0.1414
  0
CIRCLE
  8
21
 10
52.5000
 20
142.5000
 30
0.0000
 40
2.1000
  0
LINE
  8
21
 10
50.0000
 20
132.5000
 30
0.0000
 11
50.0000
 21
137.5000
 31
0.0000
  0
LINE
  8
21
 10
50.0000
 20
137.5000
 30
0.0000
 11
54.0000
 21
137.5000
 31
0.0000
  0
LINE
  8
21
 10
54.0000
 20
137.5000
 30
0.0000
 11
55.0000
 21
137.5000
 31
0.0000
  0
LINE
  8
21
 10
55.0000
 20
137.5000
 30
0.0000
 11
55.0000
 21
136.5000
 31
0.0000
  0
LINE
  8
21
 10
55.0000
 20
136.5000
 30
0.0000
 11
55.0000
 21
132.5000
 31
0.0000
  0
LINE
  8
21
 10
55.0000
 20
132.5000
 30
0.0000
 11
50.0000
 21
132.5000
 31
0.0000
  0
LINE
  8
21
 10
55.0000
 20
136.5000
 30
0.0000
 11
54.0000
 21
137.5000
 31
0.0000
  0
CIRCLE
  8
21
 10
55.1880
 20
137.9340
 30
0.0000
 40
0.1414
  0
CIRCLE
  8
21
 10
52.5000
 20
135.0000
 30
0.0000
 40
2.1000
  0
LINE
  8
21
 10
42.5000
 20
130.0000
 30
0.0000
 11
47.5000
 21
130.0000
 31
0.0000
  0
LINE
  8
21
 10
47.5000
 20
130.0000
 30
0.0000
 11
47.5000
 21
126.0000
 31
0.0000
  0
LINE
  8
21
 10
47.5000
 20
126.0000
 30
0.0000
 11
47.5000
 21
125.0000
 31
0.0000
  0
LINE
  8
21
 10
47.5000
 20
125.0000
 30
0.0000
 11
46.5000
 21
125.0000
 31
0.0000
  0
LINE
  8
21
 10
46.5000
 20
125.0000
 30
0.0000
 11
42.5000
 21
125.0000
 31
0.0000
  0
LINE
  8
21
 10
42.5000
 20
125.0000
 30
0.0000
 11
42.5000
 21
130.0000
 31
0.0000
  0
LINE
  8
21
 10
46.5000
 20
125.0000
 30
0.0000
 11
47.5000
 21
126.0000
 31
0.0000
  0
CIRCLE
  8
21
 10
47.9340
 20
124.8120
 30
0.0000
 40
0.1414
  0
CIRCLE
  8
21
 10
45.0000
 20
127.5000
 30
0.0000
 40
2.1000
  0
LINE
  8
21
 10
35.0000
 20
130.0000
 30
0.0000
 11
40.0000
 21
130.0000
 31
0.0000
  0
LINE
  8
21
 10
40.0000
 20
130.0000
 30
0.0000
 11
40.0000
 21
126.0000
 31
0.0000
  0
LINE
  8
21
 10
40.0000
 20
126.0000
 30
0.0000
 11
40.0000
 21
125.0000
 31
0.0000
  0
LINE
  8
21
 10
40.0000
 20
125.0000
 30
0.0000
 11
39.0000
 21
125.0000
 31
0.0000
  0
LINE
  8
21
 10
39.0000
 20
125.0000
 30
0.0000
 11
35.0000
 21
125.0000
 31
0.0000
  0
LINE
  8
21
 10
35.0000
 20
125.0000
 30
0.0000
 11
35.0000
 21
130.0000
 31
0.0000
  0
LINE
  8
21
 10
39.0000
 20
125.0000
 30
0.0000
 11
40.0000
 21
126.0000
 31
0.0000
  0
CIRCLE
  8
21
 10
40.4340
 20
124.8120
 30
0.0000
 40
0.1414
  0
CIRCLE
  8
21
 10
37.5000
 20
127.5000
 30
0.0000
 40
2.1000
  0
LINE
  8
21
 10
32.5000
 20
137.5000
 30
0.0000
 11
32.5000
 21
132.5000
 31
0.0000
  0
LINE
  8
21
 10
32.5000
 20
132.5000
 30
0.0000
 11
28.5000
 21
132.5000
 31
0.0000
  0
LINE
  8
21
 10
28.5000
 20
132.5000
 30
0.0000
 11
27.5000
 21
132.5000
 31
0.0000
  0
LINE
  8
21
 10
27.5000
 20
132.5000
 30
0.0000
 11
27.5000
 21
133.5000
 31
0.0000
  0
LINE
  8
21
 10
27.5000
 20
133.5000
 30
0.0000
 11
27.5000
 21
137.5000
 31
0.0000
  0
LINE
  8
21
 10
27.5000
 20
137.5000
 30
0.0000
 11
32.5000
 21
137.5000
 31
0.0000
  0
LINE
  8
21
 10
27.5000
 20
133.5000
 30
0.0000
 11
28.5000
 21
132.5000
 31
0.0000
  0
CIRCLE
  8
21
 10
27.3120
 20
132.0660
 30
0.0000
 40
0.1414
  0
CIRCLE
  8
21
 10
30.0000
 20
135.0000
 30
0.0000
 40
2.1000
  0
LINE
  8
21
 10
32.5000
 20
145.0000
 30
0.0000
 11
32.5000
 21
140.0000
 31
0.0000
  0
LINE
  8
21
 10
32.5000
 20
140.0000
 30
0.0000
 11
28.5000
 21
140.0000
 31
0.0000
  0
LINE
  8
21
 10
28.5000
 20
140.0000
 30
0.0000
 11
27.5000
 21
140.0000
 31
0.0000
  0
LINE
  8
21
 10
27.5000
 20
140.0000
 30
0.0000
 11
27.5000
 21
141.0000
 31
0.0000
  0
LINE
  8
21
 10
27.5000
 20
141.0000
 30
0.0000
 11
27.5000
 21
145.0000
 31
0.0000
  0
LINE
  8
21
 10
27.5000
 20
145.0000
 30
0.0000
 11
32.5000
 21
145.0000
 31
0.0000
  0
LINE
  8
21
 10
27.5000
 20
141.0000
 30
0.0000
 11
28.5000
 21
140.0000
 31
0.0000
  0
CIRCLE
  8
21
 10
27.3120
 20
139.5660
 30
0.0000
 40
0.1414
  0
CIRCLE
  8
21
 10
30.0000
 20
142.5000
 30
0.0000
 40
2.1000
  0
LINE
  8
21
 10
32.5000
 20
160.0000
 30
0.0000
 11
32.5000
 21
155.0000
 31
0.0000
  0
LINE
  8
21
 10
32.5000
 20
155.0000
 30
0.0000
 11
28.5000
 21
155.0000
 31
0.0000
  0
LINE
  8
21
 10
28.5000
 20
155.0000
 30
0.0000
 11
27.5000
 21
155.0000
 31
0.0000
  0
LINE
  8
21
 10
27.5000
 20
155.0000
 30
0.0000
 11
27.5000
 21
156.0000
 31
0.0000
  0
LINE
  8
21
 10
27.5000
 20
156.0000
 30
0.0000
 11
27.5000
 21
160.0000
 31
0.0000
  0
LINE
  8
21
 10
27.5000
 20
160.0000
 30
0.0000
 11
32.5000
 21
160.0000
 31
0.0000
  0
LINE
  8
21
 10
27.5000
 20
156.0000
 30
0.0000
 11
28.5000
 21
155.0000
 31
0.0000
  0
CIRCLE
  8
21
 10
27.3120
 20
154.5660
 30
0.0000
 40
0.1414
  0
CIRCLE
  8
21
 10
30.0000
 20
157.5000
 30
0.0000
 40
2.1000
  0
LINE
  8
21
 10
32.5000
 20
167.5000
 30
0.0000
 11
32.5000
 21
162.5000
 31
0.0000
  0
LINE
  8
21
 10
32.5000
 20
162.5000
 30
0.0000
 11
28.5000
 21
162.5000
 31
0.0000
  0
LINE
  8
21
 10
28.5000
 20
162.5000
 30
0.0000
 11
27.5000
 21
162.5000
 31
0.0000
  0
LINE
  8
21
 10
27.5000
 20
162.5000
 30
0.0000
 11
27.5000
 21
163.5000
 31
0.0000
  0
LINE
  8
21
 10
27.5000
 20
163.5000
 30
0.0000
 11
27.5000
 21
167.5000
 31
0.0000
  0
LINE
  8
21
 10
27.5000
 20
167.5000
 30
0.0000
 11
32.5000
 21
167.5000
 31
0.0000
  0
LINE
  8
21
 10
27.5000
 20
163.5000
 30
0.0000
 11
28.5000
 21
162.5000
 31
0.0000
  0
CIRCLE
  8
21
 10
27.3120
 20
162.0660
 30
0.0000
 40
0.1414
  0
CIRCLE
  8
21
 10
30.0000
 20
165.0000
 30
0.0000
 40
2.1000
  0
LINE
  8
21
 10
40.0000
 20
147.5000
 30
0.0000
 11
35.0000
 21
147.5000
 31
0.0000
  0
LINE
  8
21
 10
35.0000
 20
147.5000
 30
0.0000
 11
35.0000
 21
151.5000
 31
0.0000
  0
LINE
  8
21
 10
35.0000
 20
151.5000
 30
0.0000
 11
35.0000
 21
152.5000
 31
0.0000
  0
LINE
  8
21
 10
35.0000
 20
152.5000
 30
0.0000
 11
36.0000
 21
152.5000
 31
0.0000
  0
LINE
  8
21
 10
36.0000
 20
152.5000
 30
0.0000
 11
40.0000
 21
152.5000
 31
0.0000
  0
LINE
  8
21
 10
40.0000
 20
152.5000
 30
0.0000
 11
40.0000
 21
147.5000
 31
0.0000
  0
LINE
  8
21
 10
36.0000
 20
152.5000
 30
0.0000
 11
35.0000
 21
151.5000
 31
0.0000
  0
CIRCLE
  8
21
 10
34.5660
 20
152.6880
 30
0.0000
 40
0.1414
  0
CIRCLE
  8
21
 10
37.5000
 20
150.0000
 30
0.0000
 40
2.1000
  0
LINE
  8
21
 10
47.5000
 20
147.5000
 30
0.0000
 11
42.5000
 21
147.5000
 31
0.0000
  0
LINE
  8
21
 10
42.5000
 20
147.5000
 30
0.0000
 11
42.5000
 21
151.5000
 31
0.0000
  0
LINE
  8
21
 10
42.5000
 20
151.5000
 30
0.0000
 11
42.5000
 21
152.5000
 31
0.0000
  0
LINE
  8
21
 10
42.5000
 20
152.5000
 30
0.0000
 11
43.5000
 21
152.5000
 31
0.0000
  0
LINE
  8
21
 10
43.5000
 20
152.5000
 30
0.0000
 11
47.5000
 21
152.5000
 31
0.0000
  0
LINE
  8
21
 10
47.5000
 20
152.5000
 30
0.0000
 11
47.5000
 21
147.5000
 31
0.0000
  0
LINE
  8
21
 10
43.5000
 20
152.5000
 30
0.0000
 11
42.5000
 21
151.5000
 31
0.0000
  0
CIRCLE
  8
21
 10
42.0660
 20
152.6880
 30
0.0000
 40
0.1414
  0
CIRCLE
  8
21
 10
45.0000
 20
150.0000
 30
0.0000
 40
2.1000
  0
LINE
  8
21
 10
77.5000
 20
170.0000
 30
0.0000
 11
72.5000
 21
170.0000
 31
0.0000
  0
LINE
  8
21
 10
72.5000
 20
170.0000
 30
0.0000
 11
72.5000
 21
174.0000
 31
0.0000
  0
LINE
  8
21
 10
72.5000
 20
174.0000
 30
0.0000
 11
72.5000
 21
175.0000
 31
0.0000
  0
LINE
  8
21
 10
72.5000
 20
175.0000
 30
0.0000
 11
73.5000
 21
175.0000
 31
0.0000
  0
LINE
  8
21
 10
73.5000
 20
175.0000
 30
0.0000
 11
77.5000
 21
175.0000
 31
0.0000
  0
LINE
  8
21
 10
77.5000
 20
175.0000
 30
0.0000
 11
77.5000
 21
170.0000
 31
0.0000
  0
LINE
  8
21
 10
73.5000
 20
175.0000
 30
0.0000
 11
72.5000
 21
174.0000
 31
0.0000
  0
CIRCLE
  8
21
 10
72.0660
 20
175.1880
 30
0.0000
 40
0.1414
  0
CIRCLE
  8
21
 10
75.0000
 20
172.5000
 30
0.0000
 40
2.1000
  0
LINE
  8
21
 10
85.0000
 20
170.0000
 30
0.0000
 11
80.0000
 21
170.0000
 31
0.0000
  0
LINE
  8
21
 10
80.0000
 20
170.0000
 30
0.0000
 11
80.0000
 21
174.0000
 31
0.0000
  0
LINE
  8
21
 10
80.0000
 20
174.0000
 30
0.0000
 11
80.0000
 21
175.0000
 31
0.0000
  0
LINE
  8
21
 10
80.0000
 20
175.0000
 30
0.0000
 11
81.0000
 21
175.0000
 31
0.0000
  0
LINE
  8
21
 10
81.0000
 20
175.0000
 30
0.0000
 11
85.0000
 21
175.0000
 31
0.0000
  0
LINE
  8
21
 10
85.0000
 20
175.0000
 30
0.0000
 11
85.0000
 21
170.0000
 31
0.0000
  0
LINE
  8
21
 10
81.0000
 20
175.0000
 30
0.0000
 11
80.0000
 21
174.0000
 31
0.0000
  0
CIRCLE
  8
21
 10
79.5660
 20
175.1880
 30
0.0000
 40
0.1414
  0
CIRCLE
  8
21
 10
82.5000
 20
172.5000
 30
0.0000
 40
2.1000
  0
LINE
  8
21
 10
87.5000
 20
162.5000
 30
0.0000
 11
87.5000
 21
167.5000
 31
0.0000
  0
LINE
  8
21
 10
87.5000
 20
167.5000
 30
0.0000
 11
91.5000
 21
167.5000
 31
0.0000
  0
LINE
  8
21
 10
91.5000
 20
167.5000
 30
0.0000
 11
92.5000
 21
167.5000
 31
0.0000
  0
LINE
  8
21
 10
92.5000
 20
167.5000
 30
0.0000
 11
92.5000
 21
166.5000
 31
0.0000
  0
LINE
  8
21
 10
92.5000
 20
166.5000
 30
0.0000
 11
92.5000
 21
162.5000
 31
0.0000
  0
LINE
  8
21
 10
92.5000
 20
162.5000
 30
0.0000
 11
87.5000
 21
162.5000
 31
0.0000
  0
LINE
  8
21
 10
92.5000
 20
166.5000
 30
0.0000
 11
91.5000
 21
167.5000
 31
0.0000
  0
CIRCLE
  8
21
 10
92.6880
 20
167.9340
 30
0.0000
 40
0.1414
  0
CIRCLE
  8
21
 10
90.0000
 20
165.0000
 30
0.0000
 40
2.1000
  0
LINE
  8
21
 10
87.5000
 20
155.0000
 30
0.0000
 11
87.5000
 21
160.0000
 31
0.0000
  0
LINE
  8
21
 10
87.5000
 20
160.0000
 30
0.0000
 11
91.5000
 21
160.0000
 31
0.0000
  0
LINE
  8
21
 10
91.5000
 20
160.0000
 30
0.0000
 11
92.5000
 21
160.0000
 31
0.0000
  0
LINE
  8
21
 10
92.5000
 20
160.0000
 30
0.0000
 11
92.5000
 21
159.0000
 31
0.0000
  0
LINE
  8
21
 10
92.5000
 20
159.0000
 30
0.0000
 11
92.5000
 21
155.0000
 31
0.0000
  0
LINE
  8
21
 10
92.5000
 20
155.0000
 30
0.0000
 11
87.5000
 21
155.0000
 31
0.0000
  0
LINE
  8
21
 10
92.5000
 20
159.0000
 30
0.0000
 11
91.5000
 21
160.0000
 31
0.0000
  0
CIRCLE
  8
21
 10
92.6880
 20
160.4340
 30
0.0000
 40
0.1414
  0
CIRCLE
  8
21
 10
90.0000
 20
157.5000
 30
0.0000
 40
2.1000
  0
LINE
  8
21
 10
87.5000
 20
140.0000
 30
0.0000
 11
87.5000
 21
145.0000
 31
0.0000
  0
LINE
  8
21
 10
87.5000
 20
145.0000
 30
0.0000
 11
91.5000
 21
145.0000
 31
0.0000
  0
LINE
  8
21
 10
91.5000
 20
145.0000
 30
0.0000
 11
92.5000
 21
145.0000
 31
0.0000
  0
LINE
  8
21
 10
92.5000
 20
145.0000
 30
0.0000
 11
92.5000
 21
144.0000
 31
0.0000
  0
LINE
  8
21
 10
92.5000
 20
144.0000
 30
0.0000
 11
92.5000
 21
140.0000
 31
0.0000
  0
LINE
  8
21
 10
92.5000
 20
140.0000
 30
0.0000
 11
87.5000
 21
140.0000
 31
0.0000
  0
LINE
  8
21
 10
92.5000
 20
144.0000
 30
0.0000
 11
91.5000
 21
145.0000
 31
0.0000
  0
CIRCLE
  8
21
 10
92.6880
 20
145.4340
 30
0.0000
 40
0.1414
  0
CIRCLE
  8
21
 10
90.0000
 20
142.5000
 30
0.0000
 40
2.1000
  0
LINE
  8
21
 10
87.5000
 20
132.5000
 30
0.0000
 11
87.5000
 21
137.5000
 31
0.0000
  0
LINE
  8
21
 10
87.5000
 20
137.5000
 30
0.0000
 11
91.5000
 21
137.5000
 31
0.0000
  0
LINE
  8
21
 10
91.5000
 20
137.5000
 30
0.0000
 11
92.5000
 21
137.5000
 31
0.0000
  0
LINE
  8
21
 10
92.5000
 20
137.5000
 30
0.0000
 11
92.5000
 21
136.5000
 31
0.0000
  0
LINE
  8
21
 10
92.5000
 20
136.5000
 30
0.0000
 11
92.5000
 21
132.5000
 31
0.0000
  0
LINE
  8
21
 10
92.5000
 20
132.5000
 30
0.0000
 11
87.5000
 21
132.5000
 31
0.0000
  0
LINE
  8
21
 10
92.5000
 20
136.5000
 30
0.0000
 11
91.5000
 21
137.5000
 31
0.0000
  0
CIRCLE
  8
21
 10
92.6880
 20
137.9340
 30
0.0000
 40
0.1414
  0
CIRCLE
  8
21
 10
90.0000
 20
135.0000
 30
0.0000
 40
2.1000
  0
LINE
  8
21
 10
80.0000
 20
130.0000
 30
0.0000
 11
85.0000
 21
130.0000
 31
0.0000
  0
LINE
  8
21
 10
85.0000
 20
130.0000
 30
0.0000
 11
85.0000
 21
126.0000
 31
0.0000
  0
LINE
  8
21
 10
85.0000
 20
126.0000
 30
0.0000
 11
85.0000
 21
125.0000
 31
0.0000
  0
LINE
  8
21
 10
85.0000
 20
125.0000
 30
0.0000
 11
84.0000
 21
125.0000
 31
0.0000
  0
LINE
  8
21
 10
84.0000
 20
125.0000
 30
0.0000
 11
80.0000
 21
125.0000
 31
0.0000
  0
LINE
  8
21
 10
80.0000
 20
125.0000
 30
0.0000
 11
80.0000
 21
130.0000
 31
0.0000
  0
LINE
  8
21
 10
84.0000
 20
125.0000
 30
0.0000
 11
85.0000
 21
126.0000
 31
0.0000
  0
CIRCLE
  8
21
 10
85.4340
 20
124.8120
 30
0.0000
 40
0.1414
  0
CIRCLE
  8
21
 10
82.5000
 20
127.5000
 30
0.0000
 40
2.1000
  0
LINE
  8
21
 10
72.5000
 20
130.0000
 30
0.0000
 11
77.5000
 21
130.0000
 31
0.0000
  0
LINE
  8
21
 10
77.5000
 20
130.0000
 30
0.0000
 11
77.5000
 21
126.0000
 31
0.0000
  0
LINE
  8
21
 10
77.5000
 20
126.0000
 30
0.0000
 11
77.5000
 21
125.0000
 31
0.0000
  0
LINE
  8
21
 10
77.5000
 20
125.0000
 30
0.0000
 11
76.5000
 21
125.0000
 31
0.0000
  0
LINE
  8
21
 10
76.5000
 20
125.0000
 30
0.0000
 11
72.5000
 21
125.0000
 31
0.0000
  0
LINE
  8
21
 10
72.5000
 20
125.0000
 30
0.0000
 11
72.5000
 21
130.0000
 31
0.0000
  0
LINE
  8
21
 10
76.5000
 20
125.0000
 30
0.0000
 11
77.5000
 21
126.0000
 31
0.0000
  0
CIRCLE
  8
21
 10
77.9340
 20
124.8120
 30
0.0000
 40
0.1414
  0
CIRCLE
  8
21
 10
75.0000
 20
127.5000
 30
0.0000
 40
2.1000
  0
LINE
  8
21
 10
70.0000
 20
137.5000
 30
0.0000
 11
70.0000
 21
132.5000
 31
0.0000
  0
LINE
  8
21
 10
70.0000
 20
132.5000
 30
0.0000
 11
66.0000
 21
132.5000
 31
0.0000
  0
LINE
  8
21
 10
66.0000
 20
132.5000
 30
0.0000
 11
65.0000
 21
132.5000
 31
0.0000
  0
LINE
  8
21
 10
65.0000
 20
132.5000
 30
0.0000
 11
65.0000
 21
133.5000
 31
0.0000
  0
LINE
  8
21
 10
65.0000
 20
133.5000
 30
0.0000
 11
65.0000
 21
137.5000
 31
0.0000
  0
LINE
  8
21
 10
65.0000
 20
137.5000
 30
0.0000
 11
70.0000
 21
137.5000
 31
0.0000
  0
LINE
  8
21
 10
65.0000
 20
133.5000
 30
0.0000
 11
66.0000
 21
132.5000
 31
0.0000
  0
CIRCLE
  8
21
 10
64.8120
 20
132.0660
 30
0.0000
 40
0.1414
  0
CIRCLE
  8
21
 10
67.5000
 20
135.0000
 30
0.0000
 40
2.1000
  0
LINE
  8
21
 10
70.0000
 20
145.0000
 30
0.0000
 11
70.0000
 21
140.0000
 31
0.0000
  0
LINE
  8
21
 10
70.0000
 20
140.0000
 30
0.0000
 11
66.0000
 21
140.0000
 31
0.0000
  0
LINE
  8
21
 10
66.0000
 20
140.0000
 30
0.0000
 11
65.0000
 21
140.0000
 31
0.0000
  0
LINE
  8
21
 10
65.0000
 20
140.0000
 30
0.0000
 11
65.0000
 21
141.0000
 31
0.0000
  0
LINE
  8
21
 10
65.0000
 20
141.0000
 30
0.0000
 11
65.0000
 21
145.0000
 31
0.0000
  0
LINE
  8
21
 10
65.0000
 20
145.0000
 30
0.0000
 11
70.0000
 21
145.0000
 31
0.0000
  0
LINE
  8
21
 10
65.0000
 20
141.0000
 30
0.0000
 11
66.0000
 21
140.0000
 31
0.0000
  0
CIRCLE
  8
21
 10
64.8120
 20
139.5660
 30
0.0000
 40
0.1414
  0
CIRCLE
  8
21
 10
67.5000
 20
142.5000
 30
0.0000
 40
2.1000
  0
LINE
  8
21
 10
70.0000
 20
160.0000
 30
0.0000
 11
70.0000
 21
155.0000
 31
0.0000
  0
LINE
  8
21
 10
70.0000
 20
155.0000
 30
0.0000
 11
66.0000
 21
155.0000
 31
0.0000
  0
LINE
  8
21
 10
66.0000
 20
155.0000
 30
0.0000
 11
65.0000
 21
155.0000
 31
0.0000
  0
LINE
  8
21
 10
65.0000
 20
155.0000
 30
0.0000
 11
65.0000
 21
156.0000
 31
0.0000
  0
LINE
  8
21
 10
65.0000
 20
156.0000
 30
0.0000
 11
65.0000
 21
160.0000
 31
0.0000
  0
LINE
  8
21
 10
65.0000
 20
160.0000
 30
0.0000
 11
70.0000
 21
160.0000
 31
0.0000
  0
LINE
  8
21
 10
65.0000
 20
156.0000
 30
0.0000
 11
66.0000
 21
155.0000
 31
0.0000
  0
CIRCLE
  8
21
 10
64.8120
 20
154.5660
 30
0.0000
 40
0.1414
  0
CIRCLE
  8
21
 10
67.5000
 20
157.5000
 30
0.0000
 40
2.1000
  0
LINE
  8
21
 10
70.0000
 20
167.5000
 30
0.0000
 11
70.0000
 21
162.5000
 31
0.0000
  0
LINE
  8
21
 10
70.0000
 20
162.5000
 30
0.0000
 11
66.0000
 21
162.5000
 31
0.0000
  0
LINE
  8
21
 10
66.0000
 20
162.5000
 30
0.0000
 11
65.0000
 21
162.5000
 31
0.0000
  0
LINE
  8
21
 10
65.0000
 20
162.5000
 30
0.0000
 11
65.0000
 21
163.5000
 31
0.0000
  0
LINE
  8
21
 10
65.0000
 20
163.5000
 30
0.0000
 11
65.0000
 21
167.5000
 31
0.0000
  0
LINE
  8
21
 10
65.0000
 20
167.5000
 30
0.0000
 11
70.0000
 21
167.5000
 31
0.0000
  0
LINE
  8
21
 10
65.0000
 20
163.5000
 30
0.0000
 11
66.0000
 21
162.5000
 31
0.0000
  0
CIRCLE
  8
21
 10
64.8120
 20
162.0660
 30
0.0000
 40
0.1414
  0
CIRCLE
  8
21
 10
67.5000
 20
165.0000
 30
0.0000
 40
2.1000
  0
LINE
  8
21
 10
77.5000
 20
147.5000
 30
0.0000
 11
72.5000
 21
147.5000
 31
0.0000
  0
LINE
  8
21
 10
72.5000
 20
147.5000
 30
0.0000
 11
72.5000
 21
151.5000
 31
0.0000
  0
LINE
  8
21
 10
72.5000
 20
151.5000
 30
0.0000
 11
72.5000
 21
152.5000
 31
0.0000
  0
LINE
  8
21
 10
72.5000
 20
152.5000
 30
0.0000
 11
73.5000
 21
152.5000
 31
0.0000
  0
LINE
  8
21
 10
73.5000
 20
152.5000
 30
0.0000
 11
77.5000
 21
152.5000
 31
0.0000
  0
LINE
  8
21
 10
77.5000
 20
152.5000
 30
0.0000
 11
77.5000
 21
147.5000
 31
0.0000
  0
LINE
  8
21
 10
73.5000
 20
152.5000
 30
0.0000
 11
72.5000
 21
151.5000
 31
0.0000
  0
CIRCLE
  8
21
 10
72.0660
 20
152.6880
 30
0.0000
 40
0.1414
  0
CIRCLE
  8
21
 10
75.0000
 20
150.0000
 30
0.0000
 40
2.1000
  0
LINE
  8
21
 10
85.0000
 20
147.5000
 30
0.0000
 11
80.0000
 21
147.5000
 31
0.0000
  0
LINE
  8
21
 10
80.0000
 20
147.5000
 30
0.0000
 11
80.0000
 21
151.5000
 31
0.0000
  0
LINE
  8
21
 10
80.0000
 20
151.5000
 30
0.0000
 11
80.0000
 21
152.5000
 31
0.0000
  0
LINE
  8
21
 10
80.0000
 20
152.5000
 30
0.0000
 11
81.0000
 21
152.5000
 31
0.0000
  0
LINE
  8
21
 10
81.0000
 20
152.5000
 30
0.0000
 11
85.0000
 21
152.5000
 31
0.0000
  0
LINE
  8
21
 10
85.0000
 20
152.5000
 30
0.0000
 11
85.0000
 21
147.5000
 31
0.0000
  0
LINE
  8
21
 10
81.0000
 20
152.5000
 30
0.0000
 11
80.0000
 21
151.5000
 31
0.0000
  0
CIRCLE
  8
21
 10
79.5660
 20
152.6880
 30
0.0000
 40
0.1414
  0
CIRCLE
  8
21
 10
82.5000
 20
150.0000
 30
0.0000
 40
2.1000
  0
LINE
  8
21
 10
130.0000
 20
170.0000
 30
0.0000
 11
125.0000
 21
170.0000
 31
0.0000
  0
LINE
  8
21
 10
125.0000
 20
170.0000
 30
0.0000
 11
125.0000
 21
174.0000
 31
0.0000
  0
LINE
  8
21
 10
125.0000
 20
174.0000
 30
0.0000
 11
125.0000
 21
175.0000
 31
0.0000
  0
LINE
  8
21
 10
125.0000
 20
175.0000
 30
0.0000
 11
126.0000
 21
175.0000
 31
0.0000
  0
LINE
  8
21
 10
126.0000
 20
175.0000
 30
0.0000
 11
130.0000
 21
175.0000
 31
0.0000
  0
LINE
  8
21
 10
130.0000
 20
175.0000
 30
0.0000
 11
130.0000
 21
170.0000
 31
0.0000
  0
LINE
  8
21
 10
126.0000
 20
175.0000
 30
0.0000
 11
125.0000
 21
174.0000
 31
0.0000
  0
CIRCLE
  8
21
 10
124.5660
 20
175.1880
 30
0.0000
 40
0.1414
  0
CIRCLE
  8
21
 10
127.5000
 20
172.5000
 30
0.0000
 40
2.1000
  0
LINE
  8
21
 10
137.5000
 20
170.0000
 30
0.0000
 11
132.5000
 21
170.0000
 31
0.0000
  0
LINE
  8
21
 10
132.5000
 20
170.0000
 30
0.0000
 11
132.5000
 21
174.0000
 31
0.0000
  0
LINE
  8
21
 10
132.5000
 20
174.0000
 30
0.0000
 11
132.5000
 21
175.0000
 31
0.0000
  0
LINE
  8
21
 10
132.5000
 20
175.0000
 30
0.0000
 11
133.5000
 21
175.0000
 31
0.0000
  0
LINE
  8
21
 10
133.5000
 20
175.0000
 30
0.0000
 11
137.5000
 21
175.0000
 31
0.0000
  0
LINE
  8
21
 10
137.5000
 20
175.0000
 30
0.0000
 11
137.5000
 21
170.0000
 31
0.0000
  0
LINE
  8
21
 10
133.5000
 20
175.0000
 30
0.0000
 11
132.5000
 21
174.0000
 31
0.0000
  0
CIRCLE
  8
21
 10
132.0660
 20
175.1880
 30
0.0000
 40
0.1414
  0
CIRCLE
  8
21
 10
135.0000
 20
172.5000
 30
0.0000
 40
2.1000
  0
LINE
  8
21
 10
140.0000
 20
162.5000
 30
0.0000
 11
140.0000
 21
167.5000
 31
0.0000
  0
LINE
  8
21
 10
140.0000
 20
167.5000
 30
0.0000
 11
144.0000
 21
167.5000
 31
0.0000
  0
LINE
  8
21
 10
144.0000
 20
167.5000
 30
0.0000
 11
145.0000
 21
167.5000
 31
0.0000
  0
LINE
  8
21
 10
145.0000
 20
167.5000
 30
0.0000
 11
145.0000
 21
166.5000
 31
0.0000
  0
LINE
  8
21
 10
145.0000
 20
166.5000
 30
0.0000
 11
145.0000
 21
162.5000
 31
0.0000
  0
LINE
  8
21
 10
145.0000
 20
162.5000
 30
0.0000
 11
140.0000
 21
162.5000
 31
0.0000
  0
LINE
  8
21
 10
145.0000
 20
166.5000
 30
0.0000
 11
144.0000
 21
167.5000
 31
0.0000
  0
CIRCLE
  8
21
 10
145.1880
 20
167.9340
 30
0.0000
 40
0.1414
  0
CIRCLE
  8
21
 10
142.5000
 20
165.0000
 30
0.0000
 40
2.1000
  0
LINE
  8
21
 10
140.0000
 20
155.0000
 30
0.0000
 11
140.0000
 21
160.0000
 31
0.0000
  0
LINE
  8
21
 10
140.0000
 20
160.0000
 30
0.0000
 11
144.0000
 21
160.0000
 31
0.0000
  0
LINE
  8
21
 10
144.0000
 20
160.0000
 30
0.0000
 11
145.0000
 21
160.0000
 31
0.0000
  0
LINE
  8
21
 10
145.0000
 20
160.0000
 30
0.0000
 11
145.0000
 21
159.0000
 31
0.0000
  0
LINE
  8
21
 10
145.0000
 20
159.0000
 30
0.0000
 11
145.0000
 21
155.0000
 31
0.0000
  0
LINE
  8
21
 10
145.0000
 20
155.0000
 30
0.0000
 11
140.0000
 21
155.0000
 31
0.0000
  0
LINE
  8
21
 10
145.0000
 20
159.0000
 30
0.0000
 11
144.0000
 21
160.0000
 31
0.0000
  0
CIRCLE
  8
21
 10
145.1880
 20
160.4340
 30
0.0000
 40
0.1414
  0
CIRCLE
  8
21
 10
142.5000
 20
157.5000
 30
0.0000
 40
2.1000
  0
LINE
  8
21
 10
140.0000
 20
140.0000
 30
0.0000
 11
140.0000
 21
145.0000
 31
0.0000
  0
LINE
  8
21
 10
140.0000
 20
145.0000
 30
0.0000
 11
144.0000
 21
145.0000
 31
0.0000
  0
LINE
  8
21
 10
144.0000
 20
145.0000
 30
0.0000
 11
145.0000
 21
145.0000
 31
0.0000
  0
LINE
  8
21
 10
145.0000
 20
145.0000
 30
0.0000
 11
145.0000
 21
144.0000
 31
0.0000
  0
LINE
  8
21
 10
145.0000
 20
144.0000
 30
0.0000
 11
145.0000
 21
140.0000
 31
0.0000
  0
LINE
  8
21
 10
145.0000
 20
140.0000
 30
0.0000
 11
140.0000
 21
140.0000
 31
0.0000
  0
LINE
  8
21
 10
145.0000
 20
144.0000
 30
0.0000
 11
144.0000
 21
145.0000
 31
0.0000
  0
CIRCLE
  8
21
 10
145.1880
 20
145.4340
 30
0.0000
 40
0.1414
  0
CIRCLE
  8
21
 10
142.5000
 20
142.5000
 30
0.0000
 40
2.1000
  0
LINE
  8
21
 10
140.0000
 20
132.5000
 30
0.0000
 11
140.0000
 21
137.5000
 31
0.0000
  0
LINE
  8
21
 10
140.0000
 20
137.5000
 30
0.0000
 11
144.0000
 21
137.5000
 31
0.0000
  0
LINE
  8
21
 10
144.0000
 20
137.5000
 30
0.0000
 11
145.0000
 21
137.5000
 31
0.0000
  0
LINE
  8
21
 10
145.0000
 20
137.5000
 30
0.0000
 11
145.0000
 21
136.5000
 31
0.0000
  0
LINE
  8
21
 10
145.0000
 20
136.5000
 30
0.0000
 11
145.0000
 21
132.5000
 31
0.0000
  0
LINE
  8
21
 10
145.0000
 20
132.5000
 30
0.0000
 11
140.0000
 21
132.5000
 31
0.0000
  0
LINE
  8
21
 10
145.0000
 20
136.5000
 30
0.0000
 11
144.0000
 21
137.5000
 31
0.0000
  0
CIRCLE
  8
21
 10
145.1880
 20
137.9340
 30
0.0000
 40
0.1414
  0
CIRCLE
  8
21
 10
142.5000
 20
135.0000
 30
0.0000
 40
2.1000
  0
LINE
  8
21
 10
132.5000
 20
130.0000
 30
0.0000
 11
137.5000
 21
130.0000
 31
0.0000
  0
LINE
  8
21
 10
137.5000
 20
130.0000
 30
0.0000
 11
137.5000
 21
126.0000
 31
0.0000
  0
LINE
  8
21
 10
137.5000
 20
126.0000
 30
0.0000
 11
137.5000
 21
125.0000
 31
0.0000
  0
LINE
  8
21
 10
137.5000
 20
125.0000
 30
0.0000
 11
136.5000
 21
125.0000
 31
0.0000
  0
LINE
  8
21
 10
136.5000
 20
125.0000
 30
0.0000
 11
132.5000
 21
125.0000
 31
0.0000
  0
LINE
  8
21
 10
132.5000
 20
125.0000
 30
0.0000
 11
132.5000
 21
130.0000
 31
0.0000
  0
LINE
  8
21
 10
136.5000
 20
125.0000
 30
0.0000
 11
137.5000
 21
126.0000
 31
0.0000
  0
CIRCLE
  8
21
 10
137.9340
 20
124.8120
 30
0.0000
 40
0.1414
  0
CIRCLE
  8
21
 10
135.0000
 20
127.5000
 30
0.0000
 40
2.1000
  0
LINE
  8
21
 10
125.0000
 20
130.0000
 30
0.0000
 11
130.0000
 21
130.0000
 31
0.0000
  0
LINE
  8
21
 10
130.0000
 20
130.0000
 30
0.0000
 11
130.0000
 21
126.0000
 31
0.0000
  0
LINE
  8
21
 10
130.0000
 20
126.0000
 30
0.0000
 11
130.0000
 21
125.0000
 31
0.0000
  0
LINE
  8
21
 10
130.0000
 20
125.0000
 30
0.0000
 11
129.0000
 21
125.0000
 31
0.0000
  0
LINE
  8
21
 10
129.0000
 20
125.0000
 30
0.0000
 11
125.0000
 21
125.0000
 31
0.0000
  0
LINE
  8
21
 10
125.0000
 20
125.0000
 30
0.0000
 11
125.0000
 21
130.0000
 31
0.0000
  0
LINE
  8
21
 10
129.0000
 20
125.0000
 30
0.0000
 11
130.0000
 21
126.0000
 31
0.0000
  0
CIRCLE
  8
21
 10
130.4340
 20
124.8120
 30
0.0000
 40
0.1414
  0
CIRCLE
  8
21
 10
127.5000
 20
127.5000
 30
0.0000
 40
2.1000
  0
LINE
  8
21
 10
122.5000
 20
137.5000
 30
0.0000
 11
122.5000
 21
132.5000
 31
0.0000
  0
LINE
  8
21
 10
122.5000
 20
132.5000
 30
0.0000
 11
118.5000
 21
132.5000
 31
0.0000
  0
LINE
  8
21
 10
118.5000
 20
132.5000
 30
0.0000
 11
117.5000
 21
132.5000
 31
0.0000
  0
LINE
  8
21
 10
117.5000
 20
132.5000
 30
0.0000
 11
117.5000
 21
133.5000
 31
0.0000
  0
LINE
  8
21
 10
117.5000
 20
133.5000
 30
0.0000
 11
117.5000
 21
137.5000
 31
0.0000
  0
LINE
  8
21
 10
117.5000
 20
137.5000
 30
0.0000
 11
122.5000
 21
137.5000
 31
0.0000
  0
LINE
  8
21
 10
117.5000
 20
133.5000
 30
0.0000
 11
118.5000
 21
132.5000
 31
0.0000
  0
CIRCLE
  8
21
 10
117.3120
 20
132.0660
 30
0.0000
 40
0.1414
  0
CIRCLE
  8
21
 10
120.0000
 20
135.0000
 30
0.0000
 40
2.1000
  0
LINE
  8
21
 10
122.5000
 20
145.0000
 30
0.0000
 11
122.5000
 21
140.0000
 31
0.0000
  0
LINE
  8
21
 10
122.5000
 20
140.0000
 30
0.0000
 11
118.5000
 21
140.0000
 31
0.0000
  0
LINE
  8
21
 10
118.5000
 20
140.0000
 30
0.0000
 11
117.5000
 21
140.0000
 31
0.0000
  0
LINE
  8
21
 10
117.5000
 20
140.0000
 30
0.0000
 11
117.5000
 21
141.0000
 31
0.0000
  0
LINE
  8
21
 10
117.5000
 20
141.0000
 30
0.0000
 11
117.5000
 21
145.0000
 31
0.0000
  0
LINE
  8
21
 10
117.5000
 20
145.0000
 30
0.0000
 11
122.5000
 21
145.0000
 31
0.0000
  0
LINE
  8
21
 10
117.5000
 20
141.0000
 30
0.0000
 11
118.5000
 21
140.0000
 31
0.0000
  0
CIRCLE
  8
21
 10
117.3120
 20
139.5660
 30
0.0000
 40
0.1414
  0
CIRCLE
  8
21
 10
120.0000
 20
142.5000
 30
0.0000
 40
2.1000
  0
LINE
  8
21
 10
122.5000
 20
160.0000
 30
0.0000
 11
122.5000
 21
155.0000
 31
0.0000
  0
LINE
  8
21
 10
122.5000
 20
155.0000
 30
0.0000
 11
118.5000
 21
155.0000
 31
0.0000
  0
LINE
  8
21
 10
118.5000
 20
155.0000
 30
0.0000
 11
117.5000
 21
155.0000
 31
0.0000
  0
LINE
  8
21
 10
117.5000
 20
155.0000
 30
0.0000
 11
117.5000
 21
156.0000
 31
0.0000
  0
LINE
  8
21
 10
117.5000
 20
156.0000
 30
0.0000
 11
117.5000
 21
160.0000
 31
0.0000
  0
LINE
  8
21
 10
117.5000
 20
160.0000
 30
0.0000
 11
122.5000
 21
160.0000
 31
0.0000
  0
LINE
  8
21
 10
117.5000
 20
156.0000
 30
0.0000
 11
118.5000
 21
155.0000
 31
0.0000
  0
CIRCLE
  8
21
 10
117.3120
 20
154.5660
 30
0.0000
 40
0.1414
  0
CIRCLE
  8
21
 10
120.0000
 20
157.5000
 30
0.0000
 40
2.1000
  0
LINE
  8
21
 10
122.5000
 20
167.5000
 30
0.0000
 11
122.5000
 21
162.5000
 31
0.0000
  0
LINE
  8
21
 10
122.5000
 20
162.5000
 30
0.0000
 11
118.5000
 21
162.5000
 31
0.0000
  0
LINE
  8
21
 10
118.5000
 20
162.5000
 30
0.0000
 11
117.5000
 21
162.5000
 31
0.0000
  0
LINE
  8
21
 10
117.5000
 20
162.5000
 30
0.0000
 11
117.5000
 21
163.5000
 31
0.0000
  0
LINE
  8
21
 10
117.5000
 20
163.5000
 30
0.0000
 11
117.5000
 21
167.5000
 31
0.0000
  0
LINE
  8
21
 10
117.5000
 20
167.5000
 30
0.0000
 11
122.5000
 21
167.5000
 31
0.0000
  0
LINE
  8
21
 10
117.5000
 20
163.5000
 30
0.0000
 11
118.5000
 21
162.5000
 31
0.0000
  0
CIRCLE
  8
21
 10
117.3120
 20
162.0660
 30
0.0000
 40
0.1414
  0
CIRCLE
  8
21
 10
120.0000
 20
165.0000
 30
0.0000
 40
2.1000
  0
LINE
  8
21
 10
130.0000
 20
147.5000
 30
0.0000
 11
125.0000
 21
147.5000
 31
0.0000
  0
LINE
  8
21
 10
125.0000
 20
147.5000
 30
0.0000
 11
125.0000
 21
151.5000
 31
0.0000
  0
LINE
  8
21
 10
125.0000
 20
151.5000
 30
0.0000
 11
125.0000
 21
152.5000
 31
0.0000
  0
LINE
  8
21
 10
125.0000
 20
152.5000
 30
0.0000
 11
126.0000
 21
152.5000
 31
0.0000
  0
LINE
  8
21
 10
126.0000
 20
152.5000
 30
0.0000
 11
130.0000
 21
152.5000
 31
0.0000
  0
LINE
  8
21
 10
130.0000
 20
152.5000
 30
0.0000
 11
130.0000
 21
147.5000
 31
0.0000
  0
LINE
  8
21
 10
126.0000
 20
152.5000
 30
0.0000
 11
125.0000
 21
151.5000
 31
0.0000
  0
CIRCLE
  8
21
 10
124.5660
 20
152.6880
 30
0.0000
 40
0.1414
  0
CIRCLE
  8
21
 10
127.5000
 20
150.0000
 30
0.0000
 40
2.1000
  0
LINE
  8
21
 10
137.5000
 20
147.5000
 30
0.0000
 11
132.5000
 21
147.5000
 31
0.0000
  0
LINE
  8
21
 10
132.5000
 20
147.5000
 30
0.0000
 11
132.5000
 21
151.5000
 31
0.0000
  0
LINE
  8
21
 10
132.5000
 20
151.5000
 30
0.0000
 11
132.5000
 21
152.5000
 31
0.0000
  0
LINE
  8
21
 10
132.5000
 20
152.5000
 30
0.0000
 11
133.5000
 21
152.5000
 31
0.0000
  0
LINE
  8
21
 10
133.5000
 20
152.5000
 30
0.0000
 11
137.5000
 21
152.5000
 31
0.0000
  0
LINE
  8
21
 10
137.5000
 20
152.5000
 30
0.0000
 11
137.5000
 21
147.5000
 31
0.0000
  0
LINE
  8
21
 10
133.5000
 20
152.5000
 30
0.0000
 11
132.5000
 21
151.5000
 31
0.0000
  0
CIRCLE
  8
21
 10
132.0660
 20
152.6880
 30
0.0000
 40
0.1414
  0
CIRCLE
  8
21
 10
135.0000
 20
150.0000
 30
0.0000
 40
2.1000
  0
LINE
  8
21
 10
167.5000
 20
170.0000
 30
0.0000
 11
162.5000
 21
170.0000
 31
0.0000
  0
LINE
  8
21
 10
162.5000
 20
170.0000
 30
0.0000
 11
162.5000
 21
174.0000
 31
0.0000
  0
LINE
  8
21
 10
162.5000
 20
174.0000
 30
0.0000
 11
162.5000
 21
175.0000
 31
0.0000
  0
LINE
  8
21
 10
162.5000
 20
175.0000
 30
0.0000
 11
163.5000
 21
175.0000
 31
0.0000
  0
LINE
  8
21
 10
163.5000
 20
175.0000
 30
0.0000
 11
167.5000
 21
175.0000
 31
0.0000
  0
LINE
  8
21
 10
167.5000
 20
175.0000
 30
0.0000
 11
167.5000
 21
170.0000
 31
0.0000
  0
LINE
  8
21
 10
163.5000
 20
175.0000
 30
0.0000
 11
162.5000
 21
174.0000
 31
0.0000
  0
CIRCLE
  8
21
 10
162.0660
 20
175.1880
 30
0.0000
 40
0.1414
  0
CIRCLE
  8
21
 10
165.0000
 20
172.5000
 30
0.0000
 40
2.1000
  0
LINE
  8
21
 10
175.0000
 20
170.0000
 30
0.0000
 11
170.0000
 21
170.0000
 31
0.0000
  0
LINE
  8
21
 10
170.0000
 20
170.0000
 30
0.0000
 11
170.0000
 21
174.0000
 31
0.0000
  0
LINE
  8
21
 10
170.0000
 20
174.0000
 30
0.0000
 11
170.0000
 21
175.0000
 31
0.0000
  0
LINE
  8
21
 10
170.0000
 20
175.0000
 30
0.0000
 11
171.0000
 21
175.0000
 31
0.0000
  0
LINE
  8
21
 10
171.0000
 20
175.0000
 30
0.0000
 11
175.0000
 21
175.0000
 31
0.0000
  0
LINE
  8
21
 10
175.0000
 20
175.0000
 30
0.0000
 11
175.0000
 21
170.0000
 31
0.0000
  0
LINE
  8
21
 10
171.0000
 20
175.0000
 30
0.0000
 11
170.0000
 21
174.0000
 31
0.0000
  0
CIRCLE
  8
21
 10
169.5660
 20
175.1880
 30
0.0000
 40
0.1414
  0
CIRCLE
  8
21
 10
172.5000
 20
172.5000
 30
0.0000
 40
2.1000
  0
LINE
  8
21
 10
177.5000
 20
162.5000
 30
0.0000
 11
177.5000
 21
167.5000
 31
0.0000
  0
LINE
  8
21
 10
177.5000
 20
167.5000
 30
0.0000
 11
181.5000
 21
167.5000
 31
0.0000
  0
LINE
  8
21
 10
181.5000
 20
167.5000
 30
0.0000
 11
182.5000
 21
167.5000
 31
0.0000
  0
LINE
  8
21
 10
182.5000
 20
167.5000
 30
0.0000
 11
182.5000
 21
166.5000
 31
0.0000
  0
LINE
  8
21
 10
182.5000
 20
166.5000
 30
0.0000
 11
182.5000
 21
162.5000
 31
0.0000
  0
LINE
  8
21
 10
182.5000
 20
162.5000
 30
0.0000
 11
177.5000
 21
162.5000
 31
0.0000
  0
LINE
  8
21
 10
182.5000
 20
166.5000
 30
0.0000
 11
181.5000
 21
167.5000
 31
0.0000
  0
CIRCLE
  8
21
 10
182.6880
 20
167.9340
 30
0.0000
 40
0.1414
  0
CIRCLE
  8
21
 10
180.0000
 20
165.0000
 30
0.0000
 40
2.1000
  0
LINE
  8
21
 10
177.5000
 20
155.0000
 30
0.0000
 11
177.5000
 21
160.0000
 31
0.0000
  0
LINE
  8
21
 10
177.5000
 20
160.0000
 30
0.0000
 11
181.5000
 21
160.0000
 31
0.0000
  0
LINE
  8
21
 10
181.5000
 20
160.0000
 30
0.0000
 11
182.5000
 21
160.0000
 31
0.0000
  0
LINE
  8
21
 10
182.5000
 20
160.0000
 30
0.0000
 11
182.5000
 21
159.0000
 31
0.0000
  0
LINE
  8
21
 10
182.5000
 20
159.0000
 30
0.0000
 11
182.5000
 21
155.0000
 31
0.0000
  0
LINE
  8
21
 10
182.5000
 20
155.0000
 30
0.0000
 11
177.5000
 21
155.0000
 31
0.0000
  0
LINE
  8
21
 10
182.5000
 20
159.0000
 30
0.0000
 11
181.5000
 21
160.0000
 31
0.0000
  0
CIRCLE
  8
21
 10
182.6880
 20
160.4340
 30
0.0000
 40
0.1414
  0
CIRCLE
  8
21
 10
180.0000
 20
157.5000
 30
0.0000
 40
2.1000
  0
LINE
  8
21
 10
177.5000
 20
140.0000
 30
0.0000
 11
177.5000
 21
145.0000
 31
0.0000
  0
LINE
  8
21
 10
177.5000
 20
145.0000
 30
0.0000
 11
181.5000
 21
145.0000
 31
0.0000
  0
LINE
  8
21
 10
181.5000
 20
145.0000
 30
0.0000
 11
182.5000
 21
145.0000
 31
0.0000
  0
LINE
  8
21
 10
182.5000
 20
145.0000
 30
0.0000
 11
182.5000
 21
144.0000
 31
0.0000
  0
LINE
  8
21
 10
182.5000
 20
144.0000
 30
0.0000
 11
182.5000
 21
140.0000
 31
0.0000
  0
LINE
  8
21
 10
182.5000
 20
140.0000
 30
0.0000
 11
177.5000
 21
140.0000
 31
0.0000
  0
LINE
  8
21
 10
182.5000
 20
144.0000
 30
0.0000
 11
181.5000
 21
145.0000
 31
0.0000
  0
CIRCLE
  8
21
 10
182.6880
 20
145.4340
 30
0.0000
 40
0.1414
  0
CIRCLE
  8
21
 10
180.0000
 20
142.5000
 30
0.0000
 40
2.1000
  0
LINE
  8
21
 10
177.5000
 20
132.5000
 30
0.0000
 11
177.5000
 21
137.5000
 31
0.0000
  0
LINE
  8
21
 10
177.5000
 20
137.5000
 30
0.0000
 11
181.5000
 21
137.5000
 31
0.0000
  0
LINE
  8
21
 10
181.5000
 20
137.5000
 30
0.0000
 11
182.5000
 21
137.5000
 31
0.0000
  0
LINE
  8
21
 10
182.5000
 20
137.5000
 30
0.0000
 11
182.5000
 21
136.5000
 31
0.0000
  0
LINE
  8
21
 10
182.5000
 20
136.5000
 30
0.0000
 11
182.5000
 21
132.5000
 31
0.0000
  0
LINE
  8
21
 10
182.5000
 20
132.5000
 30
0.0000
 11
177.5000
 21
132.5000
 31
0.0000
  0
LINE
  8
21
 10
182.5000
 20
136.5000
 30
0.0000
 11
181.5000
 21
137.5000
 31
0.0000
  0
CIRCLE
  8
21
 10
182.6880
 20
137.9340
 30
0.0000
 40
0.1414
  0
CIRCLE
  8
21
 10
180.0000
 20
135.0000
 30
0.0000
 40
2.1000
  0
LINE
  8
21
 10
170.0000
 20
130.0000
 30
0.0000
 11
175.0000
 21
130.0000
 31
0.0000
  0
LINE
  8
21
 10
175.0000
 20
130.0000
 30
0.0000
 11
175.0000
 21
126.0000
 31
0.0000
  0
LINE
  8
21
 10
175.0000
 20
126.0000
 30
0.0000
 11
175.0000
 21
125.0000
 31
0.0000
  0
LINE
  8
21
 10
175.0000
 20
125.0000
 30
0.0000
 11
174.0000
 21
125.0000
 31
0.0000
  0
LINE
  8
21
 10
174.0000
 20
125.0000
 30
0.0000
 11
170.0000
 21
125.0000
 31
0.0000
  0
LINE
  8
21
 10
170.0000
 20
125.0000
 30
0.0000
 11
170.0000
 21
130.0000
 31
0.0000
  0
LINE
  8
21
 10
174.0000
 20
125.0000
 30
0.0000
 11
175.0000
 21
126.0000
 31
0.0000
  0
CIRCLE
  8
21
 10
175.4340
 20
124.8120
 30
0.0000
 40
0.1414
  0
CIRCLE
  8
21
 10
172.5000
 20
127.5000
 30
0.0000
 40
2.1000
  0
LINE
  8
21
 10
162.5000
 20
130.0000
 30
0.0000
 11
167.5000
 21
130.0000
 31
0.0000
  0
LINE
  8
21
 10
167.5000
 20
130.0000
 30
0.0000
 11
167.5000
 21
126.0000
 31
0.0000
  0
LINE
  8
21
 10
167.5000
 20
126.0000
 30
0.0000
 11
167.5000
 21
125.0000
 31
0.0000
  0
LINE
  8
21
 10
167.5000
 20
125.0000
 30
0.0000
 11
166.5000
 21
125.0000
 31
0.0000
  0
LINE
  8
21
 10
166.5000
 20
125.0000
 30
0.0000
 11
162.5000
 21
125.0000
 31
0.0000
  0
LINE
  8
21
 10
162.5000
 20
125.0000
 30
0.0000
 11
162.5000
 21
130.0000
 31
0.0000
  0
LINE
  8
21
 10
166.5000
 20
125.0000
 30
0.0000
 11
167.5000
 21
126.0000
 31
0.0000
  0
CIRCLE
  8
21
 10
167.9340
 20
124.8120
 30
0.0000
 40
0.1414
  0
CIRCLE
  8
21
 10
165.0000
 20
127.5000
 30
0.0000
 40
2.1000
  0
LINE
  8
21
 10
160.0000
 20
137.5000
 30
0.0000
 11
160.0000
 21
132.5000
 31
0.0000
  0
LINE
  8
21
 10
160.0000
 20
132.5000
 30
0.0000
 11
156.0000
 21
132.5000
 31
0.0000
  0
LINE
  8
21
 10
156.0000
 20
132.5000
 30
0.0000
 11
155.0000
 21
132.5000
 31
0.0000
  0
LINE
  8
21
 10
155.0000
 20
132.5000
 30
0.0000
 11
155.0000
 21
133.5000
 31
0.0000
  0
LINE
  8
21
 10
155.0000
 20
133.5000
 30
0.0000
 11
155.0000
 21
137.5000
 31
0.0000
  0
LINE
  8
21
 10
155.0000
 20
137.5000
 30
0.0000
 11
160.0000
 21
137.5000
 31
0.0000
  0
LINE
  8
21
 10
155.0000
 20
133.5000
 30
0.0000
 11
156.0000
 21
132.5000
 31
0.0000
  0
CIRCLE
  8
21
 10
154.8120
 20
132.0660
 30
0.0000
 40
0.1414
  0
CIRCLE
  8
21
 10
157.5000
 20
135.0000
 30
0.0000
 40
2.1000
  0
LINE
  8
21
 10
160.0000
 20
145.0000
 30
0.0000
 11
160.0000
 21
140.0000
 31
0.0000
  0
LINE
  8
21
 10
160.0000
 20
140.0000
 30
0.0000
 11
156.0000
 21
140.0000
 31
0.0000
  0
LINE
  8
21
 10
156.0000
 20
140.0000
 30
0.0000
 11
155.0000
 21
140.0000
 31
0.0000
  0
LINE
  8
21
 10
155.0000
 20
140.0000
 30
0.0000
 11
155.0000
 21
141.0000
 31
0.0000
  0
LINE
  8
21
 10
155.0000
 20
141.0000
 30
0.0000
 11
155.0000
 21
145.0000
 31
0.0000
  0
LINE
  8
21
 10
155.0000
 20
145.0000
 30
0.0000
 11
160.0000
 21
145.0000
 31
0.0000
  0
LINE
  8
21
 10
155.0000
 20
141.0000
 30
0.0000
 11
156.0000
 21
140.0000
 31
0.0000
  0
CIRCLE
  8
21
 10
154.8120
 20
139.5660
 30
0.0000
 40
0.1414
  0
CIRCLE
  8
21
 10
157.5000
 20
142.5000
 30
0.0000
 40
2.1000
  0
LINE
  8
21
 10
160.0000
 20
160.0000
 30
0.0000
 11
160.0000
 21
155.0000
 31
0.0000
  0
LINE
  8
21
 10
160.0000
 20
155.0000
 30
0.0000
 11
156.0000
 21
155.0000
 31
0.0000
  0
LINE
  8
21
 10
156.0000
 20
155.0000
 30
0.0000
 11
155.0000
 21
155.0000
 31
0.0000
  0
LINE
  8
21
 10
155.0000
 20
155.0000
 30
0.0000
 11
155.0000
 21
156.0000
 31
0.0000
  0
LINE
  8
21
 10
155.0000
 20
156.0000
 30
0.0000
 11
155.0000
 21
160.0000
 31
0.0000
  0
LINE
  8
21
 10
155.0000
 20
160.0000
 30
0.0000
 11
160.0000
 21
160.0000
 31
0.0000
  0
LINE
  8
21
 10
155.0000
 20
156.0000
 30
0.0000
 11
156.0000
 21
155.0000
 31
0.0000
  0
CIRCLE
  8
21
 10
154.8120
 20
154.5660
 30
0.0000
 40
0.1414
  0
CIRCLE
  8
21
 10
157.5000
 20
157.5000
 30
0.0000
 40
2.1000
  0
LINE
  8
21
 10
160.0000
 20
167.5000
 30
0.0000
 11
160.0000
 21
162.5000
 31
0.0000
  0
LINE
  8
21
 10
160.0000
 20
162.5000
 30
0.0000
 11
156.0000
 21
162.5000
 31
0.0000
  0
LINE
  8
21
 10
156.0000
 20
162.5000
 30
0.0000
 11
155.0000
 21
162.5000
 31
0.0000
  0
LINE
  8
21
 10
155.0000
 20
162.5000
 30
0.0000
 11
155.0000
 21
163.5000
 31
0.0000
  0
LINE
  8
21
 10
155.0000
 20
163.5000
 30
0.0000
 11
155.0000
 21
167.5000
 31
0.0000
  0
LINE
  8
21
 10
155.0000
 20
167.5000
 30
0.0000
 11
160.0000
 21
167.5000
 31
0.0000
  0
LINE
  8
21
 10
155.0000
 20
163.5000
 30
0.0000
 11
156.0000
 21
162.5000
 31
0.0000
  0
CIRCLE
  8
21
 10
154.8120
 20
162.0660
 30
0.0000
 40
0.1414
  0
CIRCLE
  8
21
 10
157.5000
 20
165.0000
 30
0.0000
 40
2.1000
  0
LINE
  8
21
 10
167.5000
 20
147.5000
 30
0.0000
 11
162.5000
 21
147.5000
 31
0.0000
  0
LINE
  8
21
 10
162.5000
 20
147.5000
 30
0.0000
 11
162.5000
 21
151.5000
 31
0.0000
  0
LINE
  8
21
 10
162.5000
 20
151.5000
 30
0.0000
 11
162.5000
 21
152.5000
 31
0.0000
  0
LINE
  8
21
 10
162.5000
 20
152.5000
 30
0.0000
 11
163.5000
 21
152.5000
 31
0.0000
  0
LINE
  8
21
 10
163.5000
 20
152.5000
 30
0.0000
 11
167.5000
 21
152.5000
 31
0.0000
  0
LINE
  8
21
 10
167.5000
 20
152.5000
 30
0.0000
 11
167.5000
 21
147.5000
 31
0.0000
  0
LINE
  8
21
 10
163.5000
 20
152.5000
 30
0.0000
 11
162.5000
 21
151.5000
 31
0.0000
  0
CIRCLE
  8
21
 10
162.0660
 20
152.6880
 30
0.0000
 40
0.1414
  0
CIRCLE
  8
21
 10
165.0000
 20
150.0000
 30
0.0000
 40
2.1000
  0
LINE
  8
21
 10
175.0000
 20
147.5000
 30
0.0000
 11
170.0000
 21
147.5000
 31
0.0000
  0
LINE
  8
21
 10
170.0000
 20
147.5000
 30
0.0000
 11
170.0000
 21
151.5000
 31
0.0000
  0
LINE
  8
21
 10
170.0000
 20
151.5000
 30
0.0000
 11
170.0000
 21
152.5000
 31
0.0000
  0
LINE
  8
21
 10
170.0000
 20
152.5000
 30
0.0000
 11
171.0000
 21
152.5000
 31
0.0000
  0
LINE
  8
21
 10
171.0000
 20
152.5000
 30
0.0000
 11
175.0000
 21
152.5000
 31
0.0000
  0
LINE
  8
21
 10
175.0000
 20
152.5000
 30
0.0000
 11
175.0000
 21
147.5000
 31
0.0000
  0
LINE
  8
21
 10
171.0000
 20
152.5000
 30
0.0000
 11
170.0000
 21
151.5000
 31
0.0000
  0
CIRCLE
  8
21
 10
169.5660
 20
152.6880
 30
0.0000
 40
0.1414
  0
CIRCLE
  8
21
 10
172.5000
 20
150.0000
 30
0.0000
 40
2.1000
  0
LINE
  8
21
 10
220.0000
 20
170.0000
 30
0.0000
 11
215.0000
 21
170.0000
 31
0.0000
  0
LINE
  8
21
 10
215.0000
 20
170.0000
 30
0.0000
 11
215.0000
 21
174.0000
 31
0.0000
  0
LINE
  8
21
 10
215.0000
 20
174.0000
 30
0.0000
 11
215.0000
 21
175.0000
 31
0.0000
  0
LINE
  8
21
 10
215.0000
 20
175.0000
 30
0.0000
 11
216.0000
 21
175.0000
 31
0.0000
  0
LINE
  8
21
 10
216.0000
 20
175.0000
 30
0.0000
 11
220.0000
 21
175.0000
 31
0.0000
  0
LINE
  8
21
 10
220.0000
 20
175.0000
 30
0.0000
 11
220.0000
 21
170.0000
 31
0.0000
  0
LINE
  8
21
 10
216.0000
 20
175.0000
 30
0.0000
 11
215.0000
 21
174.0000
 31
0.0000
  0
CIRCLE
  8
21
 10
214.5660
 20
175.1880
 30
0.0000
 40
0.1414
  0
CIRCLE
  8
21
 10
217.5000
 20
172.5000
 30
0.0000
 40
2.1000
  0
LINE
  8
21
 10
227.5000
 20
170.0000
 30
0.0000
 11
222.5000
 21
170.0000
 31
0.0000
  0
LINE
  8
21
 10
222.5000
 20
170.0000
 30
0.0000
 11
222.5000
 21
174.0000
 31
0.0000
  0
LINE
  8
21
 10
222.5000
 20
174.0000
 30
0.0000
 11
222.5000
 21
175.0000
 31
0.0000
  0
LINE
  8
21
 10
222.5000
 20
175.0000
 30
0.0000
 11
223.5000
 21
175.0000
 31
0.0000
  0
LINE
  8
21
 10
223.5000
 20
175.0000
 30
0.0000
 11
227.5000
 21
175.0000
 31
0.0000
  0
LINE
  8
21
 10
227.5000
 20
175.0000
 30
0.0000
 11
227.5000
 21
170.0000
 31
0.0000
  0
LINE
  8
21
 10
223.5000
 20
175.0000
 30
0.0000
 11
222.5000
 21
174.0000
 31
0.0000
  0
CIRCLE
  8
21
 10
222.0660
 20
175.1880
 30
0.0000
 40
0.1414
  0
CIRCLE
  8
21
 10
225.0000
 20
172.5000
 30
0.0000
 40
2.1000
  0
LINE
  8
21
 10
230.0000
 20
162.5000
 30
0.0000
 11
230.0000
 21
167.5000
 31
0.0000
  0
LINE
  8
21
 10
230.0000
 20
167.5000
 30
0.0000
 11
234.0000
 21
167.5000
 31
0.0000
  0
LINE
  8
21
 10
234.0000
 20
167.5000
 30
0.0000
 11
235.0000
 21
167.5000
 31
0.0000
  0
LINE
  8
21
 10
235.0000
 20
167.5000
 30
0.0000
 11
235.0000
 21
166.5000
 31
0.0000
  0
LINE
  8
21
 10
235.0000
 20
166.5000
 30
0.0000
 11
235.0000
 21
162.5000
 31
0.0000
  0
LINE
  8
21
 10
235.0000
 20
162.5000
 30
0.0000
 11
230.0000
 21
162.5000
 31
0.0000
  0
LINE
  8
21
 10
235.0000
 20
166.5000
 30
0.0000
 11
234.0000
 21
167.5000
 31
0.0000
  0
CIRCLE
  8
21
 10
235.1880
 20
167.9340
 30
0.0000
 40
0.1414
  0
CIRCLE
  8
21
 10
232.5000
 20
165.0000
 30
0.0000
 40
2.1000
  0
LINE
  8
21
 10
230.0000
 20
155.0000
 30
0.0000
 11
230.0000
 21
160.0000
 31
0.0000
  0
LINE
  8
21
 10
230.0000
 20
160.0000
 30
0.0000
 11
234.0000
 21
160.0000
 31
0.0000
  0
LINE
  8
21
 10
234.0000
 20
160.0000
 30
0.0000
 11
235.0000
 21
160.0000
 31
0.0000
  0
LINE
  8
21
 10
235.0000
 20
160.0000
 30
0.0000
 11
235.0000
 21
159.0000
 31
0.0000
  0
LINE
  8
21
 10
235.0000
 20
159.0000
 30
0.0000
 11
235.0000
 21
155.0000
 31
0.0000
  0
LINE
  8
21
 10
235.0000
 20
155.0000
 30
0.0000
 11
230.0000
 21
155.0000
 31
0.0000
  0
LINE
  8
21
 10
235.0000
 20
159.0000
 30
0.0000
 11
234.0000
 21
160.0000
 31
0.0000
  0
CIRCLE
  8
21
 10
235.1880
 20
160.4340
 30
0.0000
 40
0.1414
  0
CIRCLE
  8
21
 10
232.5000
 20
157.5000
 30
0.0000
 40
2.1000
  0
LINE
  8
21
 10
230.0000
 20
140.0000
 30
0.0000
 11
230.0000
 21
145.0000
 31
0.0000
  0
LINE
  8
21
 10
230.0000
 20
145.0000
 30
0.0000
 11
234.0000
 21
145.0000
 31
0.0000
  0
LINE
  8
21
 10
234.0000
 20
145.0000
 30
0.0000
 11
235.0000
 21
145.0000
 31
0.0000
  0
LINE
  8
21
 10
235.0000
 20
145.0000
 30
0.0000
 11
235.0000
 21
144.0000
 31
0.0000
  0
LINE
  8
21
 10
235.0000
 20
144.0000
 30
0.0000
 11
235.0000
 21
140.0000
 31
0.0000
  0
LINE
  8
21
 10
235.0000
 20
140.0000
 30
0.0000
 11
230.0000
 21
140.0000
 31
0.0000
  0
LINE
  8
21
 10
235.0000
 20
144.0000
 30
0.0000
 11
234.0000
 21
145.0000
 31
0.0000
  0
CIRCLE
  8
21
 10
235.1880
 20
145.4340
 30
0.0000
 40
0.1414
  0
CIRCLE
  8
21
 10
232.5000
 20
142.5000
 30
0.0000
 40
2.1000
  0
LINE
  8
21
 10
230.0000
 20
132.5000
 30
0.0000
 11
230.0000
 21
137.5000
 31
0.0000
  0
LINE
  8
21
 10
230.0000
 20
137.5000
 30
0.0000
 11
234.0000
 21
137.5000
 31
0.0000
  0
LINE
  8
21
 10
234.0000
 20
137.5000
 30
0.0000
 11
235.0000
 21
137.5000
 31
0.0000
  0
LINE
  8
21
 10
235.0000
 20
137.5000
 30
0.0000
 11
235.0000
 21
136.5000
 31
0.0000
  0
LINE
  8
21
 10
235.0000
 20
136.5000
 30
0.0000
 11
235.0000
 21
132.5000
 31
0.0000
  0
LINE
  8
21
 10
235.0000
 20
132.5000
 30
0.0000
 11
230.0000
 21
132.5000
 31
0.0000
  0
LINE
  8
21
 10
235.0000
 20
136.5000
 30
0.0000
 11
234.0000
 21
137.5000
 31
0.0000
  0
CIRCLE
  8
21
 10
235.1880
 20
137.9340
 30
0.0000
 40
0.1414
  0
CIRCLE
  8
21
 10
232.5000
 20
135.0000
 30
0.0000
 40
2.1000
  0
LINE
  8
21
 10
222.5000
 20
130.0000
 30
0.0000
 11
227.5000
 21
130.0000
 31
0.0000
  0
LINE
  8
21
 10
227.5000
 20
130.0000
 30
0.0000
 11
227.5000
 21
126.0000
 31
0.0000
  0
LINE
  8
21
 10
227.5000
 20
126.0000
 30
0.0000
 11
227.5000
 21
125.0000
 31
0.0000
  0
LINE
  8
21
 10
227.5000
 20
125.0000
 30
0.0000
 11
226.5000
 21
125.0000
 31
0.0000
  0
LINE
  8
21
 10
226.5000
 20
125.0000
 30
0.0000
 11
222.5000
 21
125.0000
 31
0.0000
  0
LINE
  8
21
 10
222.5000
 20
125.0000
 30
0.0000
 11
222.5000
 21
130.0000
 31
0.0000
  0
LINE
  8
21
 10
226.5000
 20
125.0000
 30
0.0000
 11
227.5000
 21
126.0000
 31
0.0000
  0
CIRCLE
  8
21
 10
227.9340
 20
124.8120
 30
0.0000
 40
0.1414
  0
CIRCLE
  8
21
 10
225.0000
 20
127.5000
 30
0.0000
 40
2.1000
  0
LINE
  8
21
 10
215.0000
 20
130.0000
 30
0.0000
 11
220.0000
 21
130.0000
 31
0.0000
  0
LINE
  8
21
 10
220.0000
 20
130.0000
 30
0.0000
 11
220.0000
 21
126.0000
 31
0.0000
  0
LINE
  8
21
 10
220.0000
 20
126.0000
 30
0.0000
 11
220.0000
 21
125.0000
 31
0.0000
  0
LINE
  8
21
 10
220.0000
 20
125.0000
 30
0.0000
 11
219.0000
 21
125.0000
 31
0.0000
  0
LINE
  8
21
 10
219.0000
 20
125.0000
 30
0.0000
 11
215.0000
 21
125.0000
 31
0.0000
  0
LINE
  8
21
 10
215.0000
 20
125.0000
 30
0.0000
 11
215.0000
 21
130.0000
 31
0.0000
  0
LINE
  8
21
 10
219.0000
 20
125.0000
 30
0.0000
 11
220.0000
 21
126.0000
 31
0.0000
  0
CIRCLE
  8
21
 10
220.4340
 20
124.8120
 30
0.0000
 40
0.1414
  0
CIRCLE
  8
21
 10
217.5000
 20
127.5000
 30
0.0000
 40
2.1000
  0
LINE
  8
21
 10
212.5000
 20
137.5000
 30
0.0000
 11
212.5000
 21
132.5000
 31
0.0000
  0
LINE
  8
21
 10
212.5000
 20
132.5000
 30
0.0000
 11
208.5000
 21
132.5000
 31
0.0000
  0
LINE
  8
21
 10
208.5000
 20
132.5000
 30
0.0000
 11
207.5000
 21
132.5000
 31
0.0000
  0
LINE
  8
21
 10
207.5000
 20
132.5000
 30
0.0000
 11
207.5000
 21
133.5000
 31
0.0000
  0
LINE
  8
21
 10
207.5000
 20
133.5000
 30
0.0000
 11
207.5000
 21
137.5000
 31
0.0000
  0
LINE
  8
21
 10
207.5000
 20
137.5000
 30
0.0000
 11
212.5000
 21
137.5000
 31
0.0000
  0
LINE
  8
21
 10
207.5000
 20
133.5000
 30
0.0000
 11
208.5000
 21
132.5000
 31
0.0000
  0
CIRCLE
  8
21
 10
207.3120
 20
132.0660
 30
0.0000
 40
0.1414
  0
CIRCLE
  8
21
 10
210.0000
 20
135.0000
 30
0.0000
 40
2.1000
  0
LINE
  8
21
 10
212.5000
 20
145.0000
 30
0.0000
 11
212.5000
 21
140.0000
 31
0.0000
  0
LINE
  8
21
 10
212.5000
 20
140.0000
 30
0.0000
 11
208.5000
 21
140.0000
 31
0.0000
  0
LINE
  8
21
 10
208.5000
 20
140.0000
 30
0.0000
 11
207.5000
 21
140.0000
 31
0.0000
  0
LINE
  8
21
 10
207.5000
 20
140.0000
 30
0.0000
 11
207.5000
 21
141.0000
 31
0.0000
  0
LINE
  8
21
 10
207.5000
 20
141.0000
 30
0.0000
 11
207.5000
 21
145.0000
 31
0.0000
  0
LINE
  8
21
 10
207.5000
 20
145.0000
 30
0.0000
 11
212.5000
 21
145.0000
 31
0.0000
  0
LINE
  8
21
 10
207.5000
 20
141.0000
 30
0.0000
 11
208.5000
 21
140.0000
 31
0.0000
  0
CIRCLE
  8
21
 10
207.3120
 20
139.5660
 30
0.0000
 40
0.1414
  0
CIRCLE
  8
21
 10
210.0000
 20
142.5000
 30
0.0000
 40
2.1000
  0
LINE
  8
21
 10
212.5000
 20
160.0000
 30
0.0000
 11
212.5000
 21
155.0000
 31
0.0000
  0
LINE
  8
21
 10
212.5000
 20
155.0000
 30
0.0000
 11
208.5000
 21
155.0000
 31
0.0000
  0
LINE
  8
21
 10
208.5000
 20
155.0000
 30
0.0000
 11
207.5000
 21
155.0000
 31
0.0000
  0
LINE
  8
21
 10
207.5000
 20
155.0000
 30
0.0000
 11
207.5000
 21
156.0000
 31
0.0000
  0
LINE
  8
21
 10
207.5000
 20
156.0000
 30
0.0000
 11
207.5000
 21
160.0000
 31
0.0000
  0
LINE
  8
21
 10
207.5000
 20
160.0000
 30
0.0000
 11
212.5000
 21
160.0000
 31
0.0000
  0
LINE
  8
21
 10
207.5000
 20
156.0000
 30
0.0000
 11
208.5000
 21
155.0000
 31
0.0000
  0
CIRCLE
  8
21
 10
207.3120
 20
154.5660
 30
0.0000
 40
0.1414
  0
CIRCLE
  8
21
 10
210.0000
 20
157.5000
 30
0.0000
 40
2.1000
  0
LINE
  8
21
 10
212.5000
 20
167.5000
 30
0.0000
 11
212.5000
 21
162.5000
 31
0.0000
  0
LINE
  8
21
 10
212.5000
 20
162.5000
 30
0.0000
 11
208.5000
 21
162.5000
 31
0.0000
  0
LINE
  8
21
 10
208.5000
 20
162.5000
 30
0.0000
 11
207.5000
 21
162.5000
 31
0.0000
  0
LINE
  8
21
 10
207.5000
 20
162.5000
 30
0.0000
 11
207.5000
 21
163.5000
 31
0.0000
  0
LINE
  8
21
 10
207.5000
 20
163.5000
 30
0.0000
 11
207.5000
 21
167.5000
 31
0.0000
  0
LINE
  8
21
 10
207.5000
 20
167.5000
 30
0.0000
 11
212.5000
 21
167.5000
 31
0.0000
  0
LINE
  8
21
 10
207.5000
 20
163.5000
 30
0.0000
 11
208.5000
 21
162.5000
 31
0.0000
  0
CIRCLE
  8
21
 10
207.3120
 20
162.0660
 30
0.0000
 40
0.1414
  0
CIRCLE
  8
21
 10
210.0000
 20
165.0000
 30
0.0000
 40
2.1000
  0
LINE
  8
21
 10
220.0000
 20
147.5000
 30
0.0000
 11
215.0000
 21
147.5000
 31
0.0000
  0
LINE
  8
21
 10
215.0000
 20
147.5000
 30
0.0000
 11
215.0000
 21
151.5000
 31
0.0000
  0
LINE
  8
21
 10
215.0000
 20
151.5000
 30
0.0000
 11
215.0000
 21
152.5000
 31
0.0000
  0
LINE
  8
21
 10
215.0000
 20
152.5000
 30
0.0000
 11
216.0000
 21
152.5000
 31
0.0000
  0
LINE
  8
21
 10
216.0000
 20
152.5000
 30
0.0000
 11
220.0000
 21
152.5000
 31
0.0000
  0
LINE
  8
21
 10
220.0000
 20
152.5000
 30
0.0000
 11
220.0000
 21
147.5000
 31
0.0000
  0
LINE
  8
21
 10
216.0000
 20
152.5000
 30
0.0000
 11
215.0000
 21
151.5000
 31
0.0000
  0
CIRCLE
  8
21
 10
214.5660
 20
152.6880
 30
0.0000
 40
0.1414
  0
CIRCLE
  8
21
 10
217.5000
 20
150.0000
 30
0.0000
 40
2.1000
  0
LINE
  8
21
 10
227.5000
 20
147.5000
 30
0.0000
 11
222.5000
 21
147.5000
 31
0.0000
  0
LINE
  8
21
 10
222.5000
 20
147.5000
 30
0.0000
 11
222.5000
 21
151.5000
 31
0.0000
  0
LINE
  8
21
 10
222.5000
 20
151.5000
 30
0.0000
 11
222.5000
 21
152.5000
 31
0.0000
  0
LINE
  8
21
 10
222.5000
 20
152.5000
 30
0.0000
 11
223.5000
 21
152.5000
 31
0.0000
  0
LINE
  8
21
 10
223.5000
 20
152.5000
 30
0.0000
 11
227.5000
 21
152.5000
 31
0.0000
  0
LINE
  8
21
 10
227.5000
 20
152.5000
 30
0.0000
 11
227.5000
 21
147.5000
 31
0.0000
  0
LINE
  8
21
 10
223.5000
 20
152.5000
 30
0.0000
 11
222.5000
 21
151.5000
 31
0.0000
  0
CIRCLE
  8
21
 10
222.0660
 20
152.6880
 30
0.0000
 40
0.1414
  0
CIRCLE
  8
21
 10
225.0000
 20
150.0000
 30
0.0000
 40
2.1000
  0
LINE
  8
21
 10
257.5000
 20
170.0000
 30
0.0000
 11
252.5000
 21
170.0000
 31
0.0000
  0
LINE
  8
21
 10
252.5000
 20
170.0000
 30
0.0000
 11
252.5000
 21
174.0000
 31
0.0000
  0
LINE
  8
21
 10
252.5000
 20
174.0000
 30
0.0000
 11
252.5000
 21
175.0000
 31
0.0000
  0
LINE
  8
21
 10
252.5000
 20
175.0000
 30
0.0000
 11
253.5000
 21
175.0000
 31
0.0000
  0
LINE
  8
21
 10
253.5000
 20
175.0000
 30
0.0000
 11
257.5000
 21
175.0000
 31
0.0000
  0
LINE
  8
21
 10
257.5000
 20
175.0000
 30
0.0000
 11
257.5000
 21
170.0000
 31
0.0000
  0
LINE
  8
21
 10
253.5000
 20
175.0000
 30
0.0000
 11
252.5000
 21
174.0000
 31
0.0000
  0
CIRCLE
  8
21
 10
252.0660
 20
175.1880
 30
0.0000
 40
0.1414
  0
CIRCLE
  8
21
 10
255.0000
 20
172.5000
 30
0.0000
 40
2.1000
  0
LINE
  8
21
 10
265.0000
 20
170.0000
 30
0.0000
 11
260.0000
 21
170.0000
 31
0.0000
  0
LINE
  8
21
 10
260.0000
 20
170.0000
 30
0.0000
 11
260.0000
 21
174.0000
 31
0.0000
  0
LINE
  8
21
 10
260.0000
 20
174.0000
 30
0.0000
 11
260.0000
 21
175.0000
 31
0.0000
  0
LINE
  8
21
 10
260.0000
 20
175.0000
 30
0.0000
 11
261.0000
 21
175.0000
 31
0.0000
  0
LINE
  8
21
 10
261.0000
 20
175.0000
 30
0.0000
 11
265.0000
 21
175.0000
 31
0.0000
  0
LINE
  8
21
 10
265.0000
 20
175.0000
 30
0.0000
 11
265.0000
 21
170.0000
 31
0.0000
  0
LINE
  8
21
 10
261.0000
 20
175.0000
 30
0.0000
 11
260.0000
 21
174.0000
 31
0.0000
  0
CIRCLE
  8
21
 10
259.5660
 20
175.1880
 30
0.0000
 40
0.1414
  0
CIRCLE
  8
21
 10
262.5000
 20
172.5000
 30
0.0000
 40
2.1000
  0
LINE
  8
21
 10
267.5000
 20
162.5000
 30
0.0000
 11
267.5000
 21
167.5000
 31
0.0000
  0
LINE
  8
21
 10
267.5000
 20
167.5000
 30
0.0000
 11
271.5000
 21
167.5000
 31
0.0000
  0
LINE
  8
21
 10
271.5000
 20
167.5000
 30
0.0000
 11
272.5000
 21
167.5000
 31
0.0000
  0
LINE
  8
21
 10
272.5000
 20
167.5000
 30
0.0000
 11
272.5000
 21
166.5000
 31
0.0000
  0
LINE
  8
21
 10
272.5000
 20
166.5000
 30
0.0000
 11
272.5000
 21
162.5000
 31
0.0000
  0
LINE
  8
21
 10
272.5000
 20
162.5000
 30
0.0000
 11
267.5000
 21
162.5000
 31
0.0000
  0
LINE
  8
21
 10
272.5000
 20
166.5000
 30
0.0000
 11
271.5000
 21
167.5000
 31
0.0000
  0
CIRCLE
  8
21
 10
272.6880
 20
167.9340
 30
0.0000
 40
0.1414
  0
CIRCLE
  8
21
 10
270.0000
 20
165.0000
 30
0.0000
 40
2.1000
  0
LINE
  8
21
 10
267.5000
 20
155.0000
 30
0.0000
 11
267.5000
 21
160.0000
 31
0.0000
  0
LINE
  8
21
 10
267.5000
 20
160.0000
 30
0.0000
 11
271.5000
 21
160.0000
 31
0.0000
  0
LINE
  8
21
 10
271.5000
 20
160.0000
 30
0.0000
 11
272.5000
 21
160.0000
 31
0.0000
  0
LINE
  8
21
 10
272.5000
 20
160.0000
 30
0.0000
 11
272.5000
 21
159.0000
 31
0.0000
  0
LINE
  8
21
 10
272.5000
 20
159.0000
 30
0.0000
 11
272.5000
 21
155.0000
 31
0.0000
  0
LINE
  8
21
 10
272.5000
 20
155.0000
 30
0.0000
 11
267.5000
 21
155.0000
 31
0.0000
  0
LINE
  8
21
 10
272.5000
 20
159.0000
 30
0.0000
 11
271.5000
 21
160.0000
 31
0.0000
  0
CIRCLE
  8
21
 10
272.6880
 20
160.4340
 30
0.0000
 40
0.1414
  0
CIRCLE
  8
21
 10
270.0000
 20
157.5000
 30
0.0000
 40
2.1000
  0
LINE
  8
21
 10
267.5000
 20
140.0000
 30
0.0000
 11
267.5000
 21
145.0000
 31
0.0000
  0
LINE
  8
21
 10
267.5000
 20
145.0000
 30
0.0000
 11
271.5000
 21
145.0000
 31
0.0000
  0
LINE
  8
21
 10
271.5000
 20
145.0000
 30
0.0000
 11
272.5000
 21
145.0000
 31
0.0000
  0
LINE
  8
21
 10
272.5000
 20
145.0000
 30
0.0000
 11
272.5000
 21
144.0000
 31
0.0000
  0
LINE
  8
21
 10
272.5000
 20
144.0000
 30
0.0000
 11
272.5000
 21
140.0000
 31
0.0000
  0
LINE
  8
21
 10
272.5000
 20
140.0000
 30
0.0000
 11
267.5000
 21
140.0000
 31
0.0000
  0
LINE
  8
21
 10
272.5000
 20
144.0000
 30
0.0000
 11
271.5000
 21
145.0000
 31
0.0000
  0
CIRCLE
  8
21
 10
272.6880
 20
145.4340
 30
0.0000
 40
0.1414
  0
CIRCLE
  8
21
 10
270.0000
 20
142.5000
 30
0.0000
 40
2.1000
  0
LINE
  8
21
 10
267.5000
 20
132.5000
 30
0.0000
 11
267.5000
 21
137.5000
 31
0.0000
  0
LINE
  8
21
 10
267.5000
 20
137.5000
 30
0.0000
 11
271.5000
 21
137.5000
 31
0.0000
  0
LINE
  8
21
 10
271.5000
 20
137.5000
 30
0.0000
 11
272.5000
 21
137.5000
 31
0.0000
  0
LINE
  8
21
 10
272.5000
 20
137.5000
 30
0.0000
 11
272.5000
 21
136.5000
 31
0.0000
  0
LINE
  8
21
 10
272.5000
 20
136.5000
 30
0.0000
 11
272.5000
 21
132.5000
 31
0.0000
  0
LINE
  8
21
 10
272.5000
 20
132.5000
 30
0.0000
 11
267.5000
 21
132.5000
 31
0.0000
  0
LINE
  8
21
 10
272.5000
 20
136.5000
 30
0.0000
 11
271.5000
 21
137.5000
 31
0.0000
  0
CIRCLE
  8
21
 10
272.6880
 20
137.9340
 30
0.0000
 40
0.1414
  0
CIRCLE
  8
21
 10
270.0000
 20
135.0000
 30
0.0000
 40
2.1000
  0
LINE
  8
21
 10
260.0000
 20
130.0000
 30
0.0000
 11
265.0000
 21
130.0000
 31
0.0000
  0
LINE
  8
21
 10
265.0000
 20
130.0000
 30
0.0000
 11
265.0000
 21
126.0000
 31
0.0000
  0
LINE
  8
21
 10
265.0000
 20
126.0000
 30
0.0000
 11
265.0000
 21
125.0000
 31
0.0000
  0
LINE
  8
21
 10
265.0000
 20
125.0000
 30
0.0000
 11
264.0000
 21
125.0000
 31
0.0000
  0
LINE
  8
21
 10
264.0000
 20
125.0000
 30
0.0000
 11
260.0000
 21
125.0000
 31
0.0000
  0
LINE
  8
21
 10
260.0000
 20
125.0000
 30
0.0000
 11
260.0000
 21
130.0000
 31
0.0000
  0
LINE
  8
21
 10
264.0000
 20
125.0000
 30
0.0000
 11
265.0000
 21
126.0000
 31
0.0000
  0
CIRCLE
  8
21
 10
265.4340
 20
124.8120
 30
0.0000
 40
0.1414
  0
CIRCLE
  8
21
 10
262.5000
 20
127.5000
 30
0.0000
 40
2.1000
  0
LINE
  8
21
 10
252.5000
 20
130.0000
 30
0.0000
 11
257.5000
 21
130.0000
 31
0.0000
  0
LINE
  8
21
 10
257.5000
 20
130.0000
 30
0.0000
 11
257.5000
 21
126.0000
 31
0.0000
  0
LINE
  8
21
 10
257.5000
 20
126.0000
 30
0.0000
 11
257.5000
 21
125.0000
 31
0.0000
  0
LINE
  8
21
 10
257.5000
 20
125.0000
 30
0.0000
 11
256.5000
 21
125.0000
 31
0.0000
  0
LINE
  8
21
 10
256.5000
 20
125.0000
 30
0.0000
 11
252.5000
 21
125.0000
 31
0.0000
  0
LINE
  8
21
 10
252.5000
 20
125.0000
 30
0.0000
 11
252.5000
 21
130.0000
 31
0.0000
  0
LINE
  8
21
 10
256.5000
 20
125.0000
 30
0.0000
 11
257.5000
 21
126.0000
 31
0.0000
  0
CIRCLE
  8
21
 10
257.9340
 20
124.8120
 30
0.0000
 40
0.1414
  0
CIRCLE
  8
21
 10
255.0000
 20
127.5000
 30
0.0000
 40
2.1000
  0
LINE
  8
21
 10
250.0000
 20
137.5000
 30
0.0000
 11
250.0000
 21
132.5000
 31
0.0000
  0
LINE
  8
21
 10
250.0000
 20
132.5000
 30
0.0000
 11
246.0000
 21
132.5000
 31
0.0000
  0
LINE
  8
21
 10
246.0000
 20
132.5000
 30
0.0000
 11
245.0000
 21
132.5000
 31
0.0000
  0
LINE
  8
21
 10
245.0000
 20
132.5000
 30
0.0000
 11
245.0000
 21
133.5000
 31
0.0000
  0
LINE
  8
21
 10
245.0000
 20
133.5000
 30
0.0000
 11
245.0000
 21
137.5000
 31
0.0000
  0
LINE
  8
21
 10
245.0000
 20
137.5000
 30
0.0000
 11
250.0000
 21
137.5000
 31
0.0000
  0
LINE
  8
21
 10
245.0000
 20
133.5000
 30
0.0000
 11
246.0000
 21
132.5000
 31
0.0000
  0
CIRCLE
  8
21
 10
244.8120
 20
132.0660
 30
0.0000
 40
0.1414
  0
CIRCLE
  8
21
 10
247.5000
 20
135.0000
 30
0.0000
 40
2.1000
  0
LINE
  8
21
 10
250.0000
 20
145.0000
 30
0.0000
 11
250.0000
 21
140.0000
 31
0.0000
  0
LINE
  8
21
 10
250.0000
 20
140.0000
 30
0.0000
 11
246.0000
 21
140.0000
 31
0.0000
  0
LINE
  8
21
 10
246.0000
 20
140.0000
 30
0.0000
 11
245.0000
 21
140.0000
 31
0.0000
  0
LINE
  8
21
 10
245.0000
 20
140.0000
 30
0.0000
 11
245.0000
 21
141.0000
 31
0.0000
  0
LINE
  8
21
 10
245.0000
 20
141.0000
 30
0.0000
 11
245.0000
 21
145.0000
 31
0.0000
  0
LINE
  8
21
 10
245.0000
 20
145.0000
 30
0.0000
 11
250.0000
 21
145.0000
 31
0.0000
  0
LINE
  8
21
 10
245.0000
 20
141.0000
 30
0.0000
 11
246.0000
 21
140.0000
 31
0.0000
  0
CIRCLE
  8
21
 10
244.8120
 20
139.5660
 30
0.0000
 40
0.1414
  0
CIRCLE
  8
21
 10
247.5000
 20
142.5000
 30
0.0000
 40
2.1000
  0
LINE
  8
21
 10
250.0000
 20
160.0000
 30
0.0000
 11
250.0000
 21
155.0000
 31
0.0000
  0
LINE
  8
21
 10
250.0000
 20
155.0000
 30
0.0000
 11
246.0000
 21
155.0000
 31
0.0000
  0
LINE
  8
21
 10
246.0000
 20
155.0000
 30
0.0000
 11
245.0000
 21
155.0000
 31
0.0000
  0
LINE
  8
21
 10
245.0000
 20
155.0000
 30
0.0000
 11
245.0000
 21
156.0000
 31
0.0000
  0
LINE
  8
21
 10
245.0000
 20
156.0000
 30
0.0000
 11
245.0000
 21
160.0000
 31
0.0000
  0
LINE
  8
21
 10
245.0000
 20
160.0000
 30
0.0000
 11
250.0000
 21
160.0000
 31
0.0000
  0
LINE
  8
21
 10
245.0000
 20
156.0000
 30
0.0000
 11
246.0000
 21
155.0000
 31
0.0000
  0
CIRCLE
  8
21
 10
244.8120
 20
154.5660
 30
0.0000
 40
0.1414
  0
CIRCLE
  8
21
 10
247.5000
 20
157.5000
 30
0.0000
 40
2.1000
  0
LINE
  8
21
 10
250.0000
 20
167.5000
 30
0.0000
 11
250.0000
 21
162.5000
 31
0.0000
  0
LINE
  8
21
 10
250.0000
 20
162.5000
 30
0.0000
 11
246.0000
 21
162.5000
 31
0.0000
  0
LINE
  8
21
 10
246.0000
 20
162.5000
 30
0.0000
 11
245.0000
 21
162.5000
 31
0.0000
  0
LINE
  8
21
 10
245.0000
 20
162.5000
 30
0.0000
 11
245.0000
 21
163.5000
 31
0.0000
  0
LINE
  8
21
 10
245.0000
 20
163.5000
 30
0.0000
 11
245.0000
 21
167.5000
 31
0.0000
  0
LINE
  8
21
 10
245.0000
 20
167.5000
 30
0.0000
 11
250.0000
 21
167.5000
 31
0.0000
  0
LINE
  8
21
 10
245.0000
 20
163.5000
 30
0.0000
 11
246.0000
 21
162.5000
 31
0.0000
  0
CIRCLE
  8
21
 10
244.8120
 20
162.0660
 30
0.0000
 40
0.1414
  0
CIRCLE
  8
21
 10
247.5000
 20
165.0000
 30
0.0000
 40
2.1000
  0
LINE
  8
21
 10
257.5000
 20
147.5000
 30
0.0000
 11
252.5000
 21
147.5000
 31
0.0000
  0
LINE
  8
21
 10
252.5000
 20
147.5000
 30
0.0000
 11
252.5000
 21
151.5000
 31
0.0000
  0
LINE
  8
21
 10
252.5000
 20
151.5000
 30
0.0000
 11
252.5000
 21
152.5000
 31
0.0000
  0
LINE
  8
21
 10
252.5000
 20
152.5000
 30
0.0000
 11
253.5000
 21
152.5000
 31
0.0000
  0
LINE
  8
21
 10
253.5000
 20
152.5000
 30
0.0000
 11
257.5000
 21
152.5000
 31
0.0000
  0
LINE
  8
21
 10
257.5000
 20
152.5000
 30
0.0000
 11
257.5000
 21
147.5000
 31
0.0000
  0
LINE
  8
21
 10
253.5000
 20
152.5000
 30
0.0000
 11
252.5000
 21
151.5000
 31
0.0000
  0
CIRCLE
  8
21
 10
252.0660
 20
152.6880
 30
0.0000
 40
0.1414
  0
CIRCLE
  8
21
 10
255.0000
 20
150.0000
 30
0.0000
 40
2.1000
  0
LINE
  8
21
 10
265.0000
 20
147.5000
 30
0.0000
 11
260.0000
 21
147.5000
 31
0.0000
  0
LINE
  8
21
 10
260.0000
 20
147.5000
 30
0.0000
 11
260.0000
 21
151.5000
 31
0.0000
  0
LINE
  8
21
 10
260.0000
 20
151.5000
 30
0.0000
 11
260.0000
 21
152.5000
 31
0.0000
  0
LINE
  8
21
 10
260.0000
 20
152.5000
 30
0.0000
 11
261.0000
 21
152.5000
 31
0.0000
  0
LINE
  8
21
 10
261.0000
 20
152.5000
 30
0.0000
 11
265.0000
 21
152.5000
 31
0.0000
  0
LINE
  8
21
 10
265.0000
 20
152.5000
 30
0.0000
 11
265.0000
 21
147.5000
 31
0.0000
  0
LINE
  8
21
 10
261.0000
 20
152.5000
 30
0.0000
 11
260.0000
 21
151.5000
 31
0.0000
  0
CIRCLE
  8
21
 10
259.5660
 20
152.6880
 30
0.0000
 40
0.1414
  0
CIRCLE
  8
21
 10
262.5000
 20
150.0000
 30
0.0000
 40
2.1000
  0
LINE
  8
21
 10
107.5000
 20
155.0000
 30
0.0000
 11
102.5000
 21
155.0000
 31
0.0000
  0
LINE
  8
21
 10
102.5000
 20
155.0000
 30
0.0000
 11
102.5000
 21
159.0000
 31
0.0000
  0
LINE
  8
21
 10
102.5000
 20
159.0000
 30
0.0000
 11
102.5000
 21
160.0000
 31
0.0000
  0
LINE
  8
21
 10
102.5000
 20
160.0000
 30
0.0000
 11
103.5000
 21
160.0000
 31
0.0000
  0
LINE
  8
21
 10
103.5000
 20
160.0000
 30
0.0000
 11
107.5000
 21
160.0000
 31
0.0000
  0
LINE
  8
21
 10
107.5000
 20
160.0000
 30
0.0000
 11
107.5000
 21
155.0000
 31
0.0000
  0
LINE
  8
21
 10
103.5000
 20
160.0000
 30
0.0000
 11
102.5000
 21
159.0000
 31
0.0000
  0
CIRCLE
  8
21
 10
102.0660
 20
160.1880
 30
0.0000
 40
0.1414
  0
CIRCLE
  8
21
 10
105.0000
 20
157.5000
 30
0.0000
 40
2.1000
  0
LINE
  8
21
 10
107.5000
 20
140.0000
 30
0.0000
 11
102.5000
 21
140.0000
 31
0.0000
  0
LINE
  8
21
 10
102.5000
 20
140.0000
 30
0.0000
 11
102.5000
 21
144.0000
 31
0.0000
  0
LINE
  8
21
 10
102.5000
 20
144.0000
 30
0.0000
 11
102.5000
 21
145.0000
 31
0.0000
  0
LINE
  8
21
 10
102.5000
 20
145.0000
 30
0.0000
 11
103.5000
 21
145.0000
 31
0.0000
  0
LINE
  8
21
 10
103.5000
 20
145.0000
 30
0.0000
 11
107.5000
 21
145.0000
 31
0.0000
  0
LINE
  8
21
 10
107.5000
 20
145.0000
 30
0.0000
 11
107.5000
 21
140.0000
 31
0.0000
  0
LINE
  8
21
 10
103.5000
 20
145.0000
 30
0.0000
 11
102.5000
 21
144.0000
 31
0.0000
  0
CIRCLE
  8
21
 10
102.0660
 20
145.1880
 30
0.0000
 40
0.1414
  0
CIRCLE
  8
21
 10
105.0000
 20
142.5000
 30
0.0000
 40
2.1000
  0
LINE
  8
21
 10
197.5000
 20
155.0000
 30
0.0000
 11
192.5000
 21
155.0000
 31
0.0000
  0
LINE
  8
21
 10
192.5000
 20
155.0000
 30
0.0000
 11
192.5000
 21
159.0000
 31
0.0000
  0
LINE
  8
21
 10
192.5000
 20
159.0000
 30
0.0000
 11
192.5000
 21
160.0000
 31
0.0000
  0
LINE
  8
21
 10
192.5000
 20
160.0000
 30
0.0000
 11
193.5000
 21
160.0000
 31
0.0000
  0
LINE
  8
21
 10
193.5000
 20
160.0000
 30
0.0000
 11
197.5000
 21
160.0000
 31
0.0000
  0
LINE
  8
21
 10
197.5000
 20
160.0000
 30
0.0000
 11
197.5000
 21
155.0000
 31
0.0000
  0
LINE
  8
21
 10
193.5000
 20
160.0000
 30
0.0000
 11
192.5000
 21
159.0000
 31
0.0000
  0
CIRCLE
  8
21
 10
192.0660
 20
160.1880
 30
0.0000
 40
0.1414
  0
CIRCLE
  8
21
 10
195.0000
 20
157.5000
 30
0.0000
 40
2.1000
  0
LINE
  8
21
 10
197.5000
 20
140.0000
 30
0.0000
 11
192.5000
 21
140.0000
 31
0.0000
  0
LINE
  8
21
 10
192.5000
 20
140.0000
 30
0.0000
 11
192.5000
 21
144.0000
 31
0.0000
  0
LINE
  8
21
 10
192.5000
 20
144.0000
 30
0.0000
 11
192.5000
 21
145.0000
 31
0.0000
  0
LINE
  8
21
 10
192.5000
 20
145.0000
 30
0.0000
 11
193.5000
 21
145.0000
 31
0.0000
  0
LINE
  8
21
 10
193.5000
 20
145.0000
 30
0.0000
 11
197.5000
 21
145.0000
 31
0.0000
  0
LINE
  8
21
 10
197.5000
 20
145.0000
 30
0.0000
 11
197.5000
 21
140.0000
 31
0.0000
  0
LINE
  8
21
 10
193.5000
 20
145.0000
 30
0.0000
 11
192.5000
 21
144.0000
 31
0.0000
  0
CIRCLE
  8
21
 10
192.0660
 20
145.1880
 30
0.0000
 40
0.1414
  0
CIRCLE
  8
21
 10
195.0000
 20
142.5000
 30
0.0000
 40
2.1000
  0
ENDSEC
  0
EOF
